<svg width="496" height="202" viewBox="0 0 496 202" fill="none" xmlns="http://www.w3.org/2000/svg">
<path d="M336.596 65.2673C336.596 62.3541 337.216 59.8438 338.456 57.7364C339.695 55.5671 341.369 53.7386 343.476 52.251C345.584 50.7634 348.032 49.5858 350.821 48.718C353.61 47.7883 356.554 47.0445 359.654 46.4867C356.802 45.9288 354.447 44.9061 352.588 43.4185C350.79 41.931 349.519 40.2265 348.776 38.305C348.032 36.3216 347.784 34.3072 348.032 32.2617C348.342 30.1543 349.148 28.2329 350.449 26.4974C351.751 24.6999 353.517 23.2433 355.749 22.1276C358.042 21.012 360.8 20.4541 364.023 20.4541C367.866 20.4541 371.461 20.826 374.808 21.5698C378.217 22.2516 381.223 23.3983 383.827 25.0098C386.43 26.6214 388.537 28.7597 390.149 31.425C391.822 34.0282 392.814 37.2513 393.124 41.0942C393.248 42.1479 393.31 43.2326 393.31 44.3483C393.31 45.402 393.31 46.4867 393.31 47.6023V65.1743C393.31 67.4057 393.31 69.575 393.31 71.6824C393.372 73.7278 393.589 75.5563 393.961 77.1679C394.333 78.7794 394.952 80.081 395.82 81.0727C396.688 82.0645 397.99 82.5603 399.725 82.5603V83.583C396.502 83.583 393.744 83.3351 391.45 82.8392C389.157 82.3434 387.267 81.5376 385.779 80.4219C384.291 79.2443 383.176 77.6637 382.432 75.6803C381.75 73.6969 381.409 71.2176 381.409 68.2424C379.674 73.139 376.947 76.9199 373.228 79.5852C369.509 82.2504 364.798 83.614 359.096 83.676C351.72 83.8 346.11 82.1884 342.268 78.8414C338.487 75.4943 336.596 70.9696 336.596 65.2673ZM348.59 66.104C348.59 70.8147 349.643 74.5336 351.751 77.2608C353.858 79.9261 357.267 81.2587 361.978 81.2587C364.643 81.2587 367.153 80.8558 369.509 80.05C371.926 79.1823 374.002 77.8187 375.738 75.9592C377.473 74.0997 378.837 71.6824 379.829 68.7073C380.882 65.7321 381.409 62.0752 381.409 57.7364V46.2077C379.488 46.2077 377.349 46.2387 374.994 46.3007C372.639 46.3007 370.221 46.4867 367.742 46.8586C365.325 47.2304 362.97 47.8193 360.676 48.625C358.383 49.4308 356.337 50.5775 354.54 52.0651C352.743 53.5526 351.286 55.4431 350.17 57.7364C349.117 60.0298 348.59 62.819 348.59 66.104ZM348.962 34.3072C349.024 35.6708 349.364 37.0964 349.984 38.5839C351.286 41.2492 353.176 43.1396 355.656 44.2553C358.197 45.371 360.893 45.9288 363.744 45.9288C366.348 45.6189 368.889 45.433 371.368 45.371C373.847 45.247 376.265 45.185 378.62 45.185H381.409C381.347 41.776 381.006 38.6459 380.387 35.7947C379.829 32.8816 378.868 30.4023 377.504 28.3569C376.141 26.2495 374.343 24.6069 372.112 23.4293C369.943 22.1896 367.184 21.5388 363.837 21.4768C361.916 21.4768 360.056 21.7558 358.259 22.3136C356.461 22.8095 354.881 23.6152 353.517 24.7309C352.154 25.7846 351.038 27.1172 350.17 28.7288C349.365 30.3403 348.962 32.1998 348.962 34.3072Z" fill="#7A1C1C"/>
<path d="M287.472 49.1829C285.613 47.7573 284.218 46.0528 283.288 44.0694C282.421 42.0859 282.018 40.0405 282.08 37.9331C282.142 35.7637 282.699 33.6563 283.753 31.6109C284.869 29.5035 286.48 27.6441 288.588 26.0325C290.695 24.359 293.329 23.0264 296.49 22.0347C299.714 20.981 303.494 20.4541 307.833 20.4541C310.127 20.4541 312.203 20.5781 314.062 20.826C315.984 21.012 317.781 21.2909 319.455 21.6628C321.19 21.9727 322.833 22.3756 324.383 22.8714C325.932 23.3673 327.513 23.8941 329.124 24.452L325.684 37.9331H324.94C324.63 35.5158 324.011 33.2844 323.081 31.239C322.213 29.1936 321.066 27.4581 319.641 26.0325C318.277 24.545 316.666 23.3983 314.806 22.5925C312.947 21.7248 310.87 21.2909 308.577 21.2909C304.424 21.2909 301.015 22.0347 298.35 23.5222C295.747 25.0098 293.856 26.7763 292.679 28.8217C291.563 30.8052 291.16 32.8816 291.47 35.0509C291.78 37.1583 292.834 38.8628 294.631 40.1645C296.181 41.2802 298.381 42.2099 301.232 42.9537C304.145 43.6355 307.213 44.3483 310.436 45.0921C313.66 45.7739 316.821 46.6106 319.92 47.6023C323.081 48.5321 325.684 49.7717 327.73 51.3213C329.651 52.8088 331.108 54.6373 332.099 56.8067C333.153 58.9761 333.649 61.2694 333.587 63.6867C333.525 66.0421 332.905 68.4284 331.727 70.8457C330.55 73.201 328.721 75.3394 326.242 77.2608C323.825 79.1203 320.726 80.6389 316.945 81.8165C313.164 82.9942 308.67 83.583 303.464 83.583C299.063 83.583 295.003 83.1491 291.284 82.2814C287.565 81.3517 283.722 79.8641 279.755 77.8187L283.567 64.1516H284.032C284.342 66.9408 285.055 69.4821 286.17 71.7754C287.286 74.0068 288.712 75.9282 290.447 77.5397C292.245 79.1513 294.321 80.4219 296.676 81.3517C299.094 82.2194 301.697 82.6533 304.486 82.6533C309.135 82.6533 312.854 81.7855 315.643 80.05C318.432 78.2525 320.416 76.1761 321.593 73.8208C322.833 71.4035 323.298 68.9862 322.988 66.5689C322.74 64.1516 321.841 62.2611 320.292 60.8975C318.866 59.6579 316.759 58.6972 313.969 58.0154C311.242 57.2716 308.298 56.5588 305.137 55.877C301.976 55.1952 298.815 54.3584 295.654 53.3667C292.493 52.375 289.765 50.9804 287.472 49.1829Z" fill="#7A1C1C"/>
<path d="M247.435 83.676C242.29 83.676 237.797 82.7773 233.954 80.9798C230.111 79.1823 226.857 76.796 224.191 73.8208C221.588 70.8457 219.605 67.4676 218.241 63.6867C216.939 59.9058 216.258 56.0319 216.196 52.0651C216.196 48.0982 216.816 44.2243 218.055 40.4434C219.357 36.6625 221.309 33.2844 223.912 30.3093C226.578 27.3342 229.863 24.9478 233.768 23.1504C237.735 21.3529 242.383 20.4541 247.714 20.4541C251.309 20.4541 254.625 20.919 257.662 21.8487C260.761 22.7785 263.55 24.0801 266.029 25.7536C268.509 27.4271 270.647 29.4415 272.445 31.7969C274.242 34.0902 275.699 36.6315 276.814 39.4207C276.07 39.5447 274.924 39.7616 273.374 40.0715C271.825 40.3194 269.996 40.6293 267.889 41.0012C265.843 41.3731 263.55 41.776 261.009 42.2099C258.468 42.6438 255.833 43.1086 253.106 43.6045C257.197 43.6665 260.699 44.2863 263.612 45.464C266.587 46.5796 269.005 48.0362 270.864 49.8337C272.785 51.5692 274.149 53.5836 274.955 55.877C275.823 58.1083 276.164 60.4017 275.978 62.757C275.854 65.0503 275.234 67.3437 274.118 69.637C273.064 71.8684 271.546 73.8518 269.562 75.5873C266.773 78.0666 263.55 80.05 259.893 81.5376C256.236 82.9632 252.083 83.676 247.435 83.676ZM228.654 47.9742C228.406 51.7551 228.53 55.691 229.026 59.7818C229.522 63.8107 230.514 67.5296 232.001 70.9387C233.489 74.2857 235.503 77.0749 238.044 79.3063C240.586 81.4756 243.809 82.5913 247.714 82.6533C252.176 82.5913 256.143 81.8785 259.614 80.5149C263.147 79.0893 266.246 77.1989 268.912 74.8435C271.949 72.1163 273.87 68.9242 274.676 65.2673C275.482 61.6103 275.079 58.1393 273.467 54.8543C272.476 52.8708 271.236 51.2283 269.748 49.9267C268.261 48.625 266.587 47.6023 264.728 46.8586C262.93 46.0528 260.978 45.4949 258.87 45.185C256.763 44.8751 254.625 44.7202 252.455 44.7202C250.224 44.7202 247.993 44.8441 245.761 45.0921C243.592 45.34 241.453 45.6499 239.346 46.0218C237.301 46.3317 235.348 46.6726 233.489 47.0445C231.691 47.4164 230.08 47.7263 228.654 47.9742ZM228.654 46.9515C230.824 46.5796 233.117 46.1768 235.534 45.7429C238.013 45.309 240.555 44.8441 243.158 44.3483C247.187 43.6665 251.154 42.9847 255.059 42.3029C259.025 41.5591 262.62 40.9083 265.843 40.3504C265.348 37.9331 264.635 35.6088 263.705 33.3774C262.837 31.0841 261.66 29.0697 260.172 27.3342C258.747 25.5367 256.98 24.1111 254.873 23.0574C252.827 22.0037 250.41 21.4768 247.621 21.4768C244.15 21.4768 241.237 22.2826 238.881 23.8941C236.588 25.4437 234.697 27.4581 233.21 29.9374C231.784 32.4167 230.7 35.1749 229.956 38.212C229.274 41.1872 228.84 44.1003 228.654 46.9515Z" fill="#7A1C1C"/>
<path d="M171.521 82.6533C174.558 82.6533 176.511 81.8786 177.379 80.329C178.308 78.7175 178.804 76.2382 178.866 72.8911V33.6564C178.866 31.7349 178.835 30.0304 178.773 28.5429C178.773 27.0553 178.587 25.8156 178.215 24.8239C177.905 23.7702 177.348 22.9644 176.542 22.4066C175.736 21.8488 174.558 21.5079 173.009 21.3839V20.4542C174.31 20.3302 175.736 20.1443 177.286 19.8963C178.897 19.6484 180.478 19.3385 182.027 18.9666C183.639 18.5947 185.219 18.1918 186.769 17.7579C188.318 17.2621 189.713 16.7352 190.953 16.1774V41.931C191.325 38.8939 192.13 36.0117 193.37 33.2845C194.672 30.5573 196.438 28.202 198.669 26.2185C200.963 24.2351 203.721 22.7165 206.944 21.6628C210.229 20.6091 214.072 20.2062 218.473 20.4542L218.287 32.5407C216.861 32.2308 215.436 32.0139 214.01 31.8899C212.584 31.7039 211.19 31.611 209.826 31.611C207.099 31.611 204.589 31.9519 202.295 32.6337C200.002 33.3155 198.019 34.3382 196.345 35.7018C194.672 37.0654 193.339 38.8009 192.347 40.9083C191.418 43.0157 190.953 45.495 190.953 48.3462V73.449C191.015 76.6101 191.511 78.9344 192.44 80.422C193.432 81.9095 195.384 82.6533 198.298 82.6533V83.5831C195.198 83.4591 192.688 83.3661 190.767 83.3041C188.845 83.1802 187.048 83.1182 185.374 83.1182C183.577 83.1182 181.717 83.1802 179.796 83.3041C177.874 83.3661 175.302 83.4591 172.079 83.5831H171.521V82.6533Z" fill="#7A1C1C"/>
<path d="M139.201 83.676C134.056 83.676 129.562 82.7773 125.72 80.9798C121.877 79.1823 118.623 76.796 115.957 73.8208C113.354 70.8457 111.371 67.4676 110.007 63.6867C108.705 59.9058 108.024 56.0319 107.962 52.0651C107.962 48.0982 108.581 44.2243 109.821 40.4434C111.123 36.6625 113.075 33.2844 115.678 30.3093C118.344 27.3342 121.629 24.9478 125.534 23.1504C129.5 21.3529 134.149 20.4541 139.48 20.4541C143.075 20.4541 146.391 20.919 149.428 21.8487C152.527 22.7785 155.316 24.0801 157.795 25.7536C160.275 27.4271 162.413 29.4415 164.211 31.7969C166.008 34.0902 167.465 36.6315 168.58 39.4207C167.836 39.5447 166.69 39.7616 165.14 40.0715C163.591 40.3194 161.762 40.6293 159.655 41.0012C157.609 41.3731 155.316 41.776 152.775 42.2099C150.234 42.6438 147.599 43.1086 144.872 43.6045C148.963 43.6665 152.465 44.2863 155.378 45.464C158.353 46.5796 160.771 48.0362 162.63 49.8337C164.551 51.5692 165.915 53.5836 166.721 55.877C167.589 58.1083 167.929 60.4017 167.743 62.757C167.62 65.0503 167 67.3437 165.884 69.637C164.83 71.8684 163.312 73.8518 161.328 75.5873C158.539 78.0666 155.316 80.05 151.659 81.5376C148.002 82.9632 143.849 83.676 139.201 83.676ZM120.42 47.9742C120.172 51.7551 120.296 55.691 120.792 59.7818C121.288 63.8107 122.28 67.5296 123.767 70.9387C125.255 74.2857 127.269 77.0749 129.81 79.3063C132.352 81.4756 135.575 82.5913 139.48 82.6533C143.942 82.5913 147.909 81.8785 151.38 80.5149C154.913 79.0893 158.012 77.1989 160.678 74.8435C163.715 72.1163 165.636 68.9242 166.442 65.2673C167.248 61.6103 166.845 58.1393 165.233 54.8543C164.242 52.8708 163.002 51.2283 161.514 49.9267C160.027 48.625 158.353 47.6023 156.494 46.8586C154.696 46.0528 152.744 45.4949 150.636 45.185C148.529 44.8751 146.391 44.7202 144.221 44.7202C141.99 44.7202 139.759 44.8441 137.527 45.0921C135.358 45.34 133.219 45.6499 131.112 46.0218C129.067 46.3317 127.114 46.6726 125.255 47.0445C123.457 47.4164 121.846 47.7263 120.42 47.9742ZM120.42 46.9515C122.589 46.5796 124.883 46.1768 127.3 45.7429C129.779 45.309 132.321 44.8441 134.924 44.3483C138.953 43.6665 142.92 42.9847 146.825 42.3029C150.791 41.5591 154.386 40.9083 157.609 40.3504C157.114 37.9331 156.401 35.6088 155.471 33.3774C154.603 31.0841 153.426 29.0697 151.938 27.3342C150.512 25.5367 148.746 24.1111 146.639 23.0574C144.593 22.0037 142.176 21.4768 139.387 21.4768C135.916 21.4768 133.002 22.2826 130.647 23.8941C128.354 25.4437 126.463 27.4581 124.976 29.9374C123.55 32.4167 122.465 35.1749 121.722 38.212C121.04 41.1872 120.606 44.1003 120.42 46.9515Z" fill="#7A1C1C"/>
<path d="M27.2419 82.6533C30.279 82.6533 32.2315 81.8785 33.0992 80.329C34.029 78.7174 34.5248 76.2381 34.5868 72.8911V17.479C34.5868 15.5575 34.5558 13.853 34.4938 12.3655C34.4938 10.8779 34.3079 9.63824 33.936 8.64652C33.6261 7.59282 33.0682 6.78706 32.2625 6.22922C31.4567 5.67138 30.279 5.33047 28.7295 5.20651V4.27677C30.0311 4.15281 31.4567 3.96686 33.0063 3.71894C34.6178 3.47101 36.1983 3.16109 37.7479 2.7892C39.3594 2.41731 40.94 2.01442 42.4895 1.58055C44.0391 1.08469 45.4337 0.55784 46.6733 0V43.0467C47.2312 40.0715 48.037 37.2513 49.0907 34.5861C50.1443 31.8589 51.477 29.4725 53.0885 27.4271C54.7 25.3817 56.6215 23.7392 58.8529 22.4996C61.1462 21.1979 63.7804 20.5161 66.7556 20.4541C71.5282 20.2682 75.805 20.919 79.5859 22.4066C83.3668 23.8322 86.5589 25.9705 89.1622 28.8217C91.8274 31.6109 93.8728 35.02 95.2984 39.0488C96.724 43.0776 97.4988 47.5404 97.6227 52.437V72.9841C97.6847 76.2691 98.1496 78.7174 99.0173 80.329C99.9471 81.8785 101.93 82.6533 104.968 82.6533V83.583C102.798 83.4591 100.629 83.3661 98.4595 83.3041C96.3521 83.2421 94.3067 83.2111 92.3233 83.2111C90.3398 83.2111 88.4804 83.2421 86.7449 83.3041C85.0713 83.3041 83.6147 83.3351 82.3751 83.3971C80.8875 83.4591 79.5549 83.521 78.3773 83.583V82.6533C80.0508 82.6533 81.3524 82.4673 82.2821 82.0955C83.2738 81.7236 84.0176 81.1657 84.5135 80.4219C85.0093 79.6162 85.3193 78.5935 85.4432 77.3538C85.6292 76.1142 85.7221 74.6576 85.7221 72.9841V53.4597C85.7221 49.3069 85.4432 45.278 84.8854 41.3731C84.3275 37.4683 83.3358 34.0282 81.9102 31.0531C80.4846 28.016 78.5322 25.6296 76.0529 23.8941C73.6356 22.1586 70.5055 21.3219 66.6626 21.3839C63.2536 21.5078 60.3094 22.5305 57.8301 24.452C55.3509 26.3115 53.3054 28.7288 51.6939 31.7039C50.0824 34.6791 48.8427 37.9951 47.975 41.6521C47.1692 45.309 46.7353 48.935 46.6733 52.5299V73.4489C46.7353 76.61 47.2312 78.9344 48.1609 80.4219C49.1526 81.9095 51.1051 82.6533 54.0182 82.6533V83.583C52.7166 83.4591 51.0431 83.3971 48.9977 83.3971C46.9523 83.3351 44.6899 83.3041 42.2106 83.3041C39.7933 83.3041 37.283 83.3351 34.6798 83.3971C32.0765 83.3971 29.5972 83.4591 27.2419 83.583V82.6533Z" fill="#7A1C1C"/>
<path d="M0 20.4542C10.7229 20.4542 16.3633 15.3096 16.9211 5.02058H17.9439V20.4542H24.266V21.3839H17.9439V65.2673C17.9439 67.4987 17.9439 69.668 17.9439 71.7754C17.9439 73.8208 18.1298 75.6493 18.5017 77.2609C18.8736 78.8724 19.4934 80.174 20.3612 81.1657C21.2289 82.0955 22.5305 82.5603 24.266 82.5603V83.583C21.043 83.583 18.2848 83.3351 15.9914 82.8393C13.6981 82.3434 11.8076 81.5376 10.32 80.422C8.83247 79.2443 7.71679 77.6637 6.973 75.6803C6.2912 73.6969 5.95029 71.2176 5.95029 68.2424V33.6564C5.95029 31.7969 5.9193 30.1544 5.85732 28.7288C5.85732 27.2412 5.67137 26.0016 5.29948 25.0098C4.98957 23.9562 4.40074 23.1194 3.53299 22.4996C2.72722 21.8797 1.54956 21.5078 0 21.3839V20.4542Z" fill="#7A1C1C"/>
<path d="M417.417 177.269C420.454 177.269 422.407 176.494 423.275 174.945C424.204 173.333 424.7 170.854 424.762 167.507V128.272C424.762 126.351 424.731 124.646 424.669 123.159C424.669 121.671 424.483 120.431 424.111 119.44C423.801 118.386 423.244 117.58 422.438 117.022C421.632 116.465 420.454 116.124 418.905 116V115.07C420.206 114.946 421.632 114.76 423.182 114.512C424.793 114.264 426.374 113.954 427.923 113.582C429.535 113.211 431.115 112.808 432.665 112.374C434.214 111.878 435.609 111.351 436.849 110.793V137.663C437.406 134.687 438.212 131.867 439.266 129.202C440.32 126.475 441.652 124.088 443.264 122.043C444.875 119.998 446.797 118.355 449.028 117.115C451.321 115.814 453.956 115.132 456.931 115.07C461.703 114.884 465.98 115.504 469.761 116.929C473.542 118.355 476.734 120.462 479.337 123.252C482.003 125.979 484.048 129.326 485.474 133.293C486.899 137.198 487.674 141.598 487.798 146.495V167.6C487.86 170.885 488.325 173.333 489.193 174.945C490.122 176.494 492.106 177.269 495.143 177.269V178.199C492.974 178.075 490.804 177.982 488.635 177.92C486.527 177.858 484.482 177.827 482.499 177.827C480.515 177.827 478.656 177.858 476.92 177.92C475.247 177.92 473.79 177.951 472.55 178.013C471.063 178.075 469.73 178.137 468.553 178.199V177.269C470.226 177.269 471.528 177.083 472.457 176.711C473.449 176.339 474.193 175.782 474.689 175.038C475.185 174.232 475.495 173.209 475.618 171.97C475.804 170.73 475.897 169.273 475.897 167.6V147.518C475.897 143.365 475.618 139.367 475.061 135.524C474.503 131.681 473.511 128.303 472.085 125.39C470.66 122.415 468.707 120.091 466.228 118.417C463.811 116.744 460.681 115.938 456.838 116C453.429 116.124 450.485 117.146 448.005 119.068C445.526 120.927 443.481 123.345 441.869 126.32C440.258 129.295 439.018 132.611 438.15 136.268C437.344 139.925 436.911 143.551 436.849 147.146V168.065C436.911 171.226 437.406 173.55 438.336 175.038C439.328 176.525 441.28 177.269 444.194 177.269V178.199C441.094 178.075 438.584 177.982 436.663 177.92C434.741 177.796 432.944 177.734 431.27 177.734C429.473 177.734 427.613 177.796 425.692 177.92C423.77 177.982 421.198 178.075 417.975 178.199H417.417V177.269Z" fill="#7A1C1C"/>
<path d="M385.096 178.292C379.952 178.292 375.458 177.393 371.615 175.596C367.772 173.798 364.518 171.412 361.853 168.437C359.25 165.462 357.266 162.084 355.903 158.303C354.601 154.522 353.919 150.648 353.857 146.681C353.857 142.714 354.477 138.84 355.717 135.059C357.019 131.278 358.971 127.9 361.574 124.925C364.239 121.95 367.525 119.564 371.429 117.766C375.396 115.969 380.045 115.07 385.375 115.07C388.97 115.07 392.286 115.535 395.324 116.465C398.423 117.394 401.212 118.696 403.691 120.369C406.17 122.043 408.309 124.057 410.106 126.413C411.904 128.706 413.36 131.247 414.476 134.037C413.732 134.161 412.586 134.377 411.036 134.687C409.486 134.935 407.658 135.245 405.551 135.617C403.505 135.989 401.212 136.392 398.671 136.826C396.129 137.26 393.495 137.725 390.768 138.22C394.859 138.282 398.361 138.902 401.274 140.08C404.249 141.196 406.666 142.652 408.526 144.45C410.447 146.185 411.811 148.2 412.617 150.493C413.484 152.724 413.825 155.018 413.639 157.373C413.515 159.666 412.895 161.96 411.78 164.253C410.726 166.484 409.208 168.468 407.224 170.203C404.435 172.683 401.212 174.666 397.555 176.154C393.898 177.579 389.745 178.292 385.096 178.292ZM366.316 142.59C366.068 146.371 366.192 150.307 366.688 154.398C367.184 158.427 368.175 162.146 369.663 165.555C371.15 168.902 373.165 171.691 375.706 173.922C378.247 176.092 381.47 177.207 385.375 177.269C389.838 177.207 393.805 176.494 397.276 175.131C400.809 173.705 403.908 171.815 406.573 169.459C409.61 166.732 411.532 163.54 412.338 159.883C413.143 156.226 412.741 152.755 411.129 149.47C410.137 147.487 408.898 145.844 407.41 144.543C405.922 143.241 404.249 142.218 402.389 141.474C400.592 140.669 398.64 140.111 396.532 139.801C394.425 139.491 392.286 139.336 390.117 139.336C387.886 139.336 385.654 139.46 383.423 139.708C381.254 139.956 379.115 140.266 377.008 140.638C374.962 140.948 373.01 141.289 371.15 141.66C369.353 142.032 367.741 142.342 366.316 142.59ZM366.316 141.567C368.485 141.196 370.779 140.793 373.196 140.359C375.675 139.925 378.216 139.46 380.82 138.964C384.849 138.282 388.815 137.601 392.72 136.919C396.687 136.175 400.282 135.524 403.505 134.966C403.009 132.549 402.297 130.225 401.367 127.993C400.499 125.7 399.321 123.686 397.834 121.95C396.408 120.153 394.642 118.727 392.534 117.673C390.489 116.62 388.072 116.093 385.282 116.093C381.811 116.093 378.898 116.898 376.543 118.51C374.25 120.06 372.359 122.074 370.872 124.553C369.446 127.033 368.361 129.791 367.617 132.828C366.936 135.803 366.502 138.716 366.316 141.567Z" fill="#7A1C1C"/>
<path d="M304.394 124.274C303.031 121.361 301.791 119.316 300.675 118.138C299.56 116.96 298.382 116.186 297.142 115.814L297.235 115.07C299.652 115.194 301.822 115.318 303.743 115.442C305.665 115.504 307.555 115.535 309.415 115.535C311.15 115.535 312.948 115.504 314.807 115.442C316.667 115.318 318.774 115.194 321.129 115.07C323.299 114.884 325.065 115.411 326.429 116.651C327.854 117.89 329.032 119.471 329.962 121.392C330.892 123.314 331.635 125.421 332.193 127.714C332.813 130.008 333.402 132.146 333.96 134.13C334.517 136.113 335.137 137.786 335.819 139.15C336.563 140.452 337.493 141.103 338.608 141.103C339.786 141.103 341.212 140.266 342.885 138.592C343.753 136.485 344.59 134.408 345.395 132.363C346.263 130.256 347.069 128.21 347.813 126.227C349.052 123.066 348.928 120.648 347.441 118.975C345.953 117.239 343.164 116.155 339.073 115.721V115.07C340.561 115.194 341.986 115.287 343.35 115.349C344.776 115.411 346.17 115.442 347.534 115.442C349.207 115.442 350.819 115.411 352.368 115.349C353.98 115.287 355.529 115.194 357.017 115.07V115.721C355.22 116.774 353.701 118.076 352.461 119.626C351.284 121.175 350.199 123.097 349.207 125.39C347.906 128.737 346.48 132.363 344.93 136.268C343.381 140.173 341.831 144.078 340.282 147.983C338.732 151.887 337.245 155.668 335.819 159.325C334.394 162.92 333.123 166.112 332.007 168.902C330.582 172.435 329.311 175.565 328.195 178.292C327.142 181.081 326.057 183.591 324.941 185.823C323.888 188.054 322.741 190.037 321.501 191.773C320.324 193.57 318.898 195.244 317.224 196.794C314.869 198.963 312.297 200.358 309.508 200.977C306.718 201.597 304.146 201.783 301.791 201.535L306.161 188.333H306.811C307.369 189.945 308.299 191.153 309.601 191.959C310.902 192.765 312.297 193.168 313.784 193.168C315.21 193.168 316.605 192.827 317.968 192.145C319.332 191.525 320.509 190.595 321.501 189.356C322.307 188.302 323.051 187.062 323.733 185.637C324.476 184.211 324.972 182.6 325.22 180.802C325.53 179.067 325.53 177.145 325.22 175.038C324.972 172.868 324.29 170.482 323.175 167.879C321.935 165.152 320.571 162.053 319.084 158.582C317.596 155.049 316.016 151.361 314.342 147.518C312.669 143.675 310.964 139.77 309.229 135.803C307.555 131.836 305.944 127.993 304.394 124.274ZM321.78 116.093C320.54 116.217 319.549 116.589 318.805 117.208C318.123 117.766 317.627 118.479 317.317 119.347C317.069 120.215 317.008 121.206 317.131 122.322C317.255 123.438 317.534 124.584 317.968 125.762C319.58 129.605 321.315 133.665 323.175 137.941C325.034 142.156 326.739 146.061 328.288 149.656C330.086 153.871 331.852 158.024 333.588 162.114C334.394 160.131 335.261 157.962 336.191 155.606C336.997 153.623 337.896 151.361 338.887 148.819C339.879 146.216 340.964 143.489 342.141 140.638C340.964 141.629 339.786 142.125 338.608 142.125C337.617 142.125 336.749 141.722 336.005 140.917C335.075 140.049 334.332 138.716 333.774 136.919C333.216 135.121 332.689 133.231 332.193 131.247C331.759 129.636 331.263 127.931 330.706 126.134C330.21 124.336 329.559 122.694 328.753 121.206C328.009 119.719 327.08 118.51 325.964 117.58C324.848 116.589 323.454 116.093 321.78 116.093Z" fill="#7A1C1C"/>
<path d="M219.838 115.07C223.371 115.256 226.811 115.318 230.158 115.256C233.506 115.194 236.481 115.101 239.084 114.977V145.751C239.084 149.656 239.301 153.53 239.735 157.373C240.231 161.154 241.129 164.532 242.431 167.507C243.795 170.482 245.685 172.899 248.102 174.759C250.52 176.556 253.712 177.393 257.679 177.269C261.088 177.207 264.063 176.215 266.604 174.294C269.145 172.373 271.253 169.924 272.926 166.949C274.6 163.974 275.87 160.658 276.738 157.001C277.606 153.344 278.071 149.718 278.133 146.123V125.204C278.071 122.043 277.575 119.719 276.645 118.231C275.715 116.743 273.763 116 270.788 116V115.07C272.895 115.194 274.724 115.287 276.273 115.349C277.823 115.349 279.217 115.349 280.457 115.349C282.131 115.349 283.68 115.349 285.106 115.349C286.593 115.287 288.298 115.194 290.219 115.07V164.997C290.219 166.174 290.219 167.476 290.219 168.902C290.281 170.327 290.498 171.66 290.87 172.899C291.242 174.077 291.862 175.1 292.73 175.967C293.597 176.773 294.868 177.176 296.541 177.176V178.199C293.318 178.199 290.529 177.951 288.174 177.455C285.881 176.959 283.99 176.153 282.502 175.038C281.015 173.86 279.899 172.28 279.155 170.296C278.474 168.313 278.133 165.833 278.133 162.858V155.606C277.575 158.396 276.738 161.123 275.622 163.788C274.569 166.453 273.174 168.84 271.439 170.947C269.765 173.054 267.751 174.79 265.395 176.153C263.102 177.455 260.499 178.137 257.586 178.199C252.813 178.385 248.536 177.765 244.755 176.339C241.036 174.914 237.875 172.837 235.272 170.11C232.731 167.321 230.747 163.943 229.322 159.976C227.958 156.009 227.245 151.577 227.183 146.681V125.669C227.121 122.384 226.626 119.967 225.696 118.417C224.828 116.805 222.876 116 219.838 116V115.07Z" fill="#7A1C1C"/>
<path d="M162.449 179.5L163.379 179.686C164.185 182.847 165.3 185.761 166.726 188.426C168.213 191.153 170.011 193.477 172.118 195.399C174.226 197.32 176.643 198.808 179.37 199.862C182.097 200.915 185.166 201.349 188.575 201.163C191.24 201.039 193.936 200.636 196.663 199.955C199.39 199.273 201.808 198.281 203.915 196.979C206.085 195.74 207.851 194.159 209.215 192.238C210.578 190.378 211.26 188.178 211.26 185.637C211.26 183.715 210.64 182.104 209.401 180.802C208.161 179.562 206.518 178.54 204.473 177.734C202.49 176.866 200.227 176.215 197.686 175.782C195.145 175.286 192.541 174.883 189.876 174.573C187.211 174.263 184.608 174.015 182.066 173.829C179.587 173.581 177.387 173.271 175.465 172.899C173.296 172.527 171.591 172.032 170.352 171.412C169.112 170.792 168.182 170.11 167.563 169.366C167.005 168.623 166.664 167.848 166.54 167.042C166.416 166.236 166.416 165.461 166.54 164.718C166.726 163.478 167.408 162.424 168.585 161.557C169.763 160.627 171.189 159.852 172.862 159.232C174.598 158.55 176.426 158.024 178.347 157.652C180.331 157.28 182.221 157.032 184.019 156.908C180.672 156.536 177.573 155.854 174.722 154.863C171.932 153.809 169.515 152.445 167.47 150.772C165.486 149.036 163.937 146.96 162.821 144.542C161.705 142.125 161.147 139.367 161.147 136.268C161.147 132.549 161.953 129.388 163.565 126.785C165.176 124.119 167.253 121.919 169.794 120.183C172.397 118.448 175.31 117.177 178.533 116.372C181.757 115.566 184.98 115.163 188.203 115.163C189.814 115.163 191.488 115.318 193.223 115.628C195.021 115.938 196.725 116.279 198.337 116.65C200.816 113.613 203.543 111.165 206.518 109.306C209.494 107.384 212.81 106.423 216.467 106.423C217.644 106.423 219.008 106.578 220.557 106.888L216.838 119.626H216.188C215.878 117.766 214.917 116.217 213.305 114.977C211.694 113.737 209.834 113.117 207.727 113.117C206.363 113.117 204.969 113.427 203.543 114.047C202.18 114.667 200.878 115.659 199.638 117.022C201.684 117.704 203.667 118.634 205.589 119.812C207.51 120.927 209.184 122.291 210.609 123.902C212.097 125.452 213.274 127.28 214.142 129.388C215.01 131.433 215.444 133.696 215.444 136.175C215.444 140.08 214.669 143.365 213.12 146.03C211.57 148.695 209.463 150.896 206.797 152.631C204.132 154.305 200.971 155.575 197.314 156.443C193.719 157.249 189.876 157.745 185.785 157.931C179.525 158.303 176.395 159.542 176.395 161.65C176.395 162.827 177.48 163.695 179.649 164.253C181.818 164.749 184.515 165.183 187.738 165.554C191.023 165.864 194.556 166.267 198.337 166.763C202.118 167.259 205.62 168.065 208.843 169.18C212.128 170.296 214.855 171.908 217.024 174.015C219.194 176.06 220.278 178.85 220.278 182.383C220.278 186.04 219.287 189.108 217.303 191.587C215.32 194.128 212.779 196.174 209.68 197.723C206.58 199.273 203.109 200.357 199.266 200.977C195.486 201.659 191.736 202 188.017 202C185.537 202 182.965 201.814 180.3 201.442C177.635 201.07 175.031 200.512 172.49 199.769C169.949 199.025 167.501 198.126 165.145 197.072C162.79 196.019 160.652 194.81 158.73 193.446L162.449 179.5ZM188.575 116.372C186.033 116.372 183.74 116.867 181.695 117.859C179.649 118.851 177.883 120.245 176.395 122.043C174.907 123.778 173.761 125.886 172.955 128.365C172.149 130.782 171.746 133.448 171.746 136.361C171.746 139.212 172.056 141.877 172.676 144.357C173.296 146.774 174.288 148.881 175.651 150.679C177.077 152.414 178.874 153.778 181.044 154.77C183.275 155.761 185.971 156.257 189.132 156.257C192.046 156.257 194.494 155.668 196.477 154.491C198.461 153.251 200.041 151.639 201.219 149.656C202.459 147.673 203.326 145.41 203.822 142.869C204.38 140.328 204.659 137.724 204.659 135.059C204.659 132.332 204.318 129.822 203.636 127.528C202.954 125.235 201.932 123.283 200.568 121.671C199.205 119.998 197.5 118.696 195.455 117.766C193.471 116.836 191.178 116.372 188.575 116.372Z" fill="#7A1C1C"/>
<path d="M80.8249 177.269C83.862 177.269 85.8144 176.494 86.6822 174.945C87.6119 173.333 88.1078 170.854 88.1698 167.507V128.272C88.1698 126.351 88.1388 124.646 88.0768 123.159C88.0768 121.671 87.8908 120.431 87.5189 119.44C87.209 118.386 86.6512 117.58 85.8454 117.022C85.0397 116.465 83.862 116.124 82.3124 116V115.07C83.6141 114.946 85.0397 114.76 86.5892 114.512C88.2007 114.264 89.7813 113.954 91.3308 113.582C92.9424 113.211 94.5229 112.808 96.0725 112.374C97.622 111.878 99.0166 111.351 100.256 110.793V137.663C100.814 134.687 101.62 131.867 102.674 129.202C103.727 126.475 105.06 124.088 106.671 122.043C108.283 119.998 110.204 118.355 112.436 117.115C114.729 115.814 117.363 115.132 120.339 115.07C125.111 114.884 129.388 115.504 133.169 116.929C136.95 118.355 140.142 120.462 142.745 123.252C145.41 125.979 147.456 129.326 148.881 133.293C150.307 137.198 151.082 141.598 151.206 146.495V167.6C151.268 170.885 151.733 173.333 152.6 174.945C153.53 176.494 155.513 177.269 158.551 177.269V178.199C156.381 178.075 154.212 177.982 152.042 177.92C149.935 177.858 147.89 177.827 145.906 177.827C143.923 177.827 142.063 177.858 140.328 177.92C138.654 177.92 137.198 177.951 135.958 178.013C134.47 178.075 133.138 178.137 131.96 178.199V177.269C133.634 177.269 134.935 177.083 135.865 176.711C136.857 176.339 137.601 175.782 138.096 175.038C138.592 174.232 138.902 173.209 139.026 171.97C139.212 170.73 139.305 169.273 139.305 167.6V147.518C139.305 143.365 139.026 139.367 138.468 135.524C137.91 131.681 136.919 128.303 135.493 125.39C134.068 122.415 132.115 120.091 129.636 118.417C127.219 116.744 124.088 115.938 120.246 116C116.837 116.124 113.892 117.146 111.413 119.068C108.934 120.927 106.888 123.345 105.277 126.32C103.665 129.295 102.426 132.611 101.558 136.268C100.752 139.925 100.318 143.551 100.256 147.146V168.065C100.318 171.226 100.814 173.55 101.744 175.038C102.736 176.525 104.688 177.269 107.601 177.269V178.199C104.502 178.075 101.992 177.982 100.07 177.92C98.1489 177.796 96.3514 177.734 94.6779 177.734C92.8804 177.734 91.0209 177.796 89.0995 177.92C87.178 177.982 84.6058 178.075 81.3827 178.199H80.8249V177.269Z" fill="#7A1C1C"/>
</svg>
