<svg width="52" height="52" viewBox="0 0 52 52" fill="none" xmlns="http://www.w3.org/2000/svg">
<path fill-rule="evenodd" clip-rule="evenodd" d="M39.9249 42.5158C40.5484 42.4218 41.2076 42.4347 41.7045 41.9809C43.8088 42.3018 45.9424 41.7832 47.5954 40.626C48.4657 39.9259 49.2516 39.1123 49.8881 38.2241C50.4466 37.4397 50.8883 36.7104 51.1741 35.8352C51.3852 35.2939 51.554 34.7331 51.6807 34.1561C52.2815 31.4301 51.9665 28.3864 51.0767 25.7965C50.9143 25.3135 50.7292 24.85 50.5278 24.406C49.4172 22.1175 47.9071 19.6508 45.5819 18.2051C44.2732 17.3915 43.0684 16.1306 42.328 14.8243C41.9253 14.4645 41.5421 13.9848 41.0193 13.9005C41.1621 14.1339 41.318 14.364 41.357 14.6363L41.3278 14.6752C40.7757 14.6914 40.3438 14.3997 39.9638 14.0464L40.3828 13.6704C40.2236 13.5893 40.045 13.5602 39.8697 13.5213C38.2816 13.3397 36.9729 14.0723 35.5603 14.4256L35.5408 14.5034C36.4046 14.8859 36.5865 15.8389 37.0898 16.4839C37.2165 16.3348 37.4276 16.4418 37.6029 16.4288C37.853 16.4418 38.09 16.6233 38.3336 16.5617C38.3433 16.351 38.2232 16.1825 38.1875 15.9945C38.3336 15.9264 38.5155 15.988 38.6811 15.9945C39.139 16.2635 39.8697 15.9491 40.1554 16.5617C39.6358 16.5941 39.1455 16.7011 38.6584 16.821C38.6908 17.0188 38.8857 17.1743 38.8727 17.3721C38.4538 17.197 38.0121 17.0901 37.5477 17.035L37.525 17.103C38.116 17.7935 38.9246 18.2051 39.7527 18.4482C40.9446 18.7205 41.9903 18.1565 43.1399 18.3542C45.9587 19.6411 48.3683 22.5875 49.4172 25.3849C49.4692 25.521 49.5179 25.6582 49.5633 25.7965C50.4434 28.3508 50.609 31.4885 49.729 34.1529C49.2613 35.2615 48.745 36.3084 47.9201 37.2096C47.6084 37.592 47.2641 37.9356 46.8874 38.2241C45.7054 39.1414 44.2472 39.5466 42.7437 39.135C42.6495 39.0701 42.4611 39.0539 42.4936 38.8919C42.5456 38.6714 42.5943 38.451 42.6365 38.2241C42.8866 36.947 43.0002 35.6018 42.9353 34.2599C42.9331 34.2015 42.9309 34.1443 42.9288 34.0881C42.8443 32.1367 42.4579 30.3831 41.7369 28.6976C41.2758 27.7316 40.7302 26.6749 40.0418 25.7284C39.2169 24.6004 38.1972 23.6248 36.8852 23.1353C36.0831 22.9246 35.0894 22.8825 34.4854 23.5502C34.0502 23.9295 33.8716 24.4384 33.9333 24.9991C33.2546 25.427 32.4947 25.6571 31.6633 25.7284C31.462 25.7447 31.2541 25.8192 31.043 25.8192C30.8417 25.8257 30.6469 25.8192 30.4553 25.7965C29.4583 25.6733 28.4483 25.1353 27.6819 24.5226C27.6657 24.1142 27.643 23.7285 27.6267 23.2974C27.1883 23.0705 26.8213 22.6361 26.7921 22.1272L26.8311 22.0883C27.0844 22.1661 27.302 22.2893 27.5325 22.4222C27.4286 21.8096 27.3117 21.2067 27.0065 20.6718C26.7207 20.5519 26.4381 20.4579 26.1719 20.3185C25.8633 20.1143 25.6652 19.7448 25.6198 19.4077C25.8958 19.6735 26.3764 19.5795 26.5875 19.8615C26.2173 18.7691 26.2108 17.5212 25.6035 16.5228C25.295 15.7838 24.4929 15.4467 23.9408 14.9054C23.7265 14.646 23.6421 14.283 23.2556 14.2441C22.9406 14.1663 22.9179 13.813 22.8627 13.5829C23.0575 13.6088 23.2232 13.7417 23.3888 13.7709C22.9341 12.565 22.5314 11.2199 21.2942 10.4484L21.0831 10.5845C20.6025 10.6526 20.0894 10.685 19.6087 10.7012C19.8231 10.3868 20.1998 10.2539 20.4985 10.1113C20.1543 9.85198 19.8685 9.79039 19.4334 9.71908C19.1833 9.96867 18.7287 10.0983 18.4039 10.1664L18.3649 10.134C18.3552 9.85198 18.2903 9.50839 18.7189 9.43708C18.3097 9.23935 17.6278 9.32039 17.2121 9.43708C17.0952 9.74177 16.7575 10.0173 16.7802 10.3803C16.5366 10.6299 16.3645 10.9703 16.1112 11.1518C16.1047 10.5456 16.3613 9.98812 16.4717 9.47598C16.1177 9.61212 15.7572 9.80012 15.4098 9.96543C14.8512 9.64129 14.2634 9.32039 13.6659 9.07728C13.6107 9.05135 13.4905 9.02866 13.5132 9.13239C14.0263 9.49867 13.8282 10.1923 13.8835 10.7174L13.5587 10.4516C13.4028 10.0497 12.9482 9.76122 12.8702 9.32039C12.3344 9.42411 11.9902 9.56349 11.4933 9.77743L11.4251 9.81633C11.7953 9.81633 12.1103 10.1048 12.2922 10.3965C11.7336 10.429 11.2368 10.2085 10.6847 10.1534C10.6295 10.0983 10.5808 10.0335 10.4963 10.0432C10.2203 10.1437 9.98325 10.3414 9.73969 10.5294C9.19736 11.0643 8.64529 11.6542 8.38549 12.3608C8.56735 12.39 8.79467 12.3835 8.92782 12.4937C8.62905 12.6753 8.36926 12.98 8.08023 13.1517C7.97631 13.5634 7.99255 14.0269 7.96982 14.4742C7.73925 14.8211 7.43399 15.1258 7.2846 15.5115C6.79424 17.0901 6.67083 18.8437 6.73903 20.6329C6.58315 20.782 6.37531 20.8793 6.22918 20.996L6.24541 22.5972H6.28438C6.35258 22.2601 6.75527 22.0721 6.99883 21.8452H7.08001C7.04104 22.205 6.99233 22.5681 6.98584 22.9376L6.52794 23.3136C6.07005 23.7155 6.4565 24.3184 6.41753 24.8241C6.45 24.9538 6.47274 25.1515 6.56691 25.1839C6.62212 24.9862 6.79748 24.8468 6.9079 24.6717C7.10274 24.6264 7.27811 24.4675 7.45672 24.4448C7.35605 24.8403 7.2229 25.2228 7.06378 25.5988C6.98908 25.6507 6.89815 25.7155 6.82346 25.7965C6.74228 25.884 6.67733 25.9813 6.66109 26.0882C7.01831 27.9488 7.57363 29.7867 8.21013 31.5403C7.77822 32.2696 7.53466 33.1319 7.17419 33.8839C7.12223 33.9908 7.07677 34.0978 7.0313 34.208C6.67083 35.1221 6.56042 36.1431 6.10902 37.0183C5.92716 36.8951 5.72907 36.7979 5.52772 36.7136C4.67689 36.4316 3.68966 36.6099 3.06939 37.2647C2.51733 37.1609 1.95227 37.2549 1.51711 37.5467C1.20535 37.7768 0.968285 38.0588 0.828644 38.3862C0.734468 38.6163 0.692251 38.8627 0.705241 39.135C0.351267 39.3781 0.162914 39.7541 0.0460054 40.1333C-0.119615 40.9793 0.179151 41.8642 0.666271 42.5158H39.9249Z" fill="white"/>
<path fill-rule="evenodd" clip-rule="evenodd" d="M34.7128 24.85C34.703 25.0543 34.5536 25.2812 34.6868 25.4529C34.8784 25.2423 35.1934 25.2487 35.4435 25.1547C36.1449 25.0931 36.8139 25.3136 37.4666 25.4724C37.3043 25.2098 37.1938 24.9214 37.012 24.6847C36.6483 24.5907 36.0994 24.8436 36.0345 24.3087C35.8137 24.1207 35.4662 24.2536 35.2421 24.2666C35.018 24.4254 34.8394 24.6231 34.7128 24.85Z" fill="white"/>
<path fill-rule="evenodd" clip-rule="evenodd" d="M10.6391 18.0656C10.6359 18.0624 10.6326 18.0592 10.6294 18.0592C10.6294 18.0592 10.6294 18.0624 10.6294 18.0656H10.6391Z" fill="white"/>
<path fill-rule="evenodd" clip-rule="evenodd" d="M13.5036 25.0477L13.9778 24.5939C14.0167 24.5939 14.046 24.6036 14.0719 24.6328L14.0297 25.5047C14.2603 25.7187 14.5428 25.7867 14.8416 25.8029C14.8676 25.5696 15.0462 25.4042 15.1501 25.2C15.2378 25.0347 15.1826 24.7916 15.3547 24.6717L15.4066 24.7268C15.4651 24.9861 15.4489 25.2778 15.582 25.5047C15.5982 25.6311 15.621 25.7867 15.6372 25.8969C15.9847 25.9131 16.2964 25.8191 16.566 25.6927C16.5498 25.3945 16.6537 25.1514 16.6991 24.8759C16.7706 24.7819 16.6115 24.6101 16.8095 24.6166C16.92 24.8532 17.1181 25.0963 17.2285 25.3459C17.6831 24.8824 17.8747 24.2795 17.9819 23.6506C17.852 23.4691 17.6441 23.4691 17.4883 23.3524C16.1503 22.9213 14.4292 22.8338 13.1399 23.5015C13.0555 24.0364 13.1659 24.6263 13.5036 25.0477Z" fill="white"/>
<path fill-rule="evenodd" clip-rule="evenodd" d="M0.987803 39.7929C0.939091 40.3991 0.987803 40.9663 1.02353 41.5627C1.15342 41.7572 1.38075 41.9874 1.60807 42.0036L1.65029 41.6016C1.74121 41.0441 1.44245 40.4509 1.75745 39.9777C1.97828 40.049 2.19911 40.1592 2.39071 40.2629C2.48164 39.7443 2.34849 39.1381 1.85163 38.8237L0.987803 39.7929Z" fill="white"/>
<path fill-rule="evenodd" clip-rule="evenodd" d="M2.92938 38.9436C2.62412 39.8642 2.39355 40.9987 2.76701 41.9647C2.97809 41.8253 3.19892 41.6891 3.38728 41.4946C3.34831 40.7524 3.24763 39.9647 3.68604 39.3521C4.07249 39.4688 4.33229 39.8383 4.48167 40.2013C4.74147 39.8707 4.82915 39.4137 4.72848 38.9728C4.74147 38.6292 4.34852 38.7103 4.16017 38.5676C4.22187 38.2759 4.21213 37.9388 4.52064 37.7735L3.57563 37.8675C3.33207 38.2111 3.06578 38.5514 2.92938 38.9436Z" fill="white"/>
<path fill-rule="evenodd" clip-rule="evenodd" d="M4.87793 41.6567C4.9169 41.7281 4.87793 41.8545 4.95587 41.8707C5.07602 41.2094 5.60861 40.7816 5.90088 40.2013C6.04377 40.0036 6.03403 39.7281 6.26135 39.579C6.56986 39.579 6.79069 39.7994 7.08945 39.8253C7.18688 39.8934 7.04074 39.9582 7.03425 40.036C6.97254 40.5709 6.76795 41.0149 6.80692 41.5627H6.86213C7.27781 41.1252 7.56358 40.6487 7.86884 40.1462L7.92405 39.6989C7.9955 39.1641 7.41095 38.8173 7.03425 38.6001L7.37198 38.1657L6.9011 38.0004C6.34903 38.0555 5.85217 38.2857 5.46572 38.7168C4.98834 39.5952 4.90716 40.5903 4.87793 41.6567Z" fill="white"/>
<path fill-rule="evenodd" clip-rule="evenodd" d="M6.99561 36.9956C7.17746 37.0507 7.34308 36.9016 7.52169 36.9793C8.24913 37.2451 9.00579 37.5207 9.54811 38.1268L10.1944 39.767L10.5159 38.7556L10.3048 38.2046C10.1229 37.8124 9.62605 37.8448 9.28832 37.8286C9.14543 37.6698 9.29481 37.4882 9.34352 37.3391C9.50914 36.7816 8.82393 36.814 8.54789 36.5871C8.56413 36.25 8.15495 36.3667 7.92438 36.3343L7.84644 36.2403C7.80098 36.169 7.68082 36.169 7.61912 36.2241C7.60288 36.2014 7.57041 36.1852 7.58664 36.1463L7.41128 36.1852C7.17097 36.3991 7.00535 36.6747 6.99561 36.9956Z" fill="white"/>
<path fill-rule="evenodd" clip-rule="evenodd" d="M7.45312 35.1901C7.47586 35.2906 7.53756 35.3943 7.6155 35.4559C7.97272 35.3619 8.31046 35.1188 8.71964 35.2647C9.24897 35.7282 9.79779 36.2177 10.4375 36.4705L10.6649 36.4284C10.8078 36.477 10.9636 36.4835 11.0578 36.6423C11.1455 36.853 10.9279 36.9794 10.8532 37.1512C11.2104 37.4105 11.0676 37.874 11.2884 38.1885L11.8567 37.4332C11.7235 37.1026 11.8632 36.5386 11.3436 36.5062C11.1715 36.4219 11.0513 36.2468 11.0611 36.0524C10.7233 35.7444 10.3044 35.6115 9.96666 35.2971C9.69063 35.0767 9.52501 34.7396 9.17103 34.6618C8.92747 34.5289 8.66118 34.4576 8.3754 34.396C7.84607 34.3182 7.8006 34.9438 7.45312 35.1901Z" fill="white"/>
<path fill-rule="evenodd" clip-rule="evenodd" d="M8.20703 33.6407L8.30446 33.7898C8.6974 33.7671 9.05137 33.5953 9.43782 33.6018C9.69762 33.7606 10.0386 33.7509 10.3049 33.8838C10.516 34.1755 10.7465 34.5062 11.0583 34.7006C11.6981 34.7947 12.052 35.4786 12.2729 35.981V35.7379C12.367 35.4008 12.2631 35.0086 12.1365 34.7006C11.9806 34.5451 11.7533 34.4413 11.5876 34.2987C11.5552 34.1982 11.5779 34.1496 11.6104 34.0556C11.3668 33.7963 11.0031 33.6537 10.7043 33.4527C10.2887 32.8466 9.48328 33.0119 8.84678 32.8466L8.20703 33.6407Z" fill="white"/>
<path fill-rule="evenodd" clip-rule="evenodd" d="M8.19727 27.8775C8.26546 28.1206 8.3499 28.4285 8.39861 28.6878C8.61944 28.1984 9.0546 27.9812 9.4378 27.5792C9.21697 27.4301 8.94418 27.3588 8.69737 27.3134V27.2972C8.52526 27.469 8.25897 27.6441 8.19727 27.8775Z" fill="white"/>
<path fill-rule="evenodd" clip-rule="evenodd" d="M9.62598 30.4609L9.97995 30.1011C10.3372 29.7413 10.6262 29.3231 10.6814 28.8596C10.4313 28.7105 10.1001 28.811 9.85655 28.8985C9.76562 29.4107 9.63572 29.9131 9.62598 30.4609Z" fill="white"/>
<path fill-rule="evenodd" clip-rule="evenodd" d="M9.88574 31.5694C10.4313 31.6018 10.9574 31.7088 11.3991 31.4073L11.8375 29.9908C11.6978 29.9811 11.5549 29.9195 11.4218 29.9681C11.1328 30.6132 10.5482 31.2485 9.88574 31.5694Z" fill="white"/>
<path fill-rule="evenodd" clip-rule="evenodd" d="M10.045 26.5582C10.3989 27.0768 10.99 27.657 11.5972 27.8223C11.5258 27.1611 10.9607 26.7073 10.6685 26.14L10.6522 25.952C10.4217 25.7316 10.1456 25.5825 9.91181 25.4658C9.87284 25.8418 9.97676 26.2049 10.045 26.5582Z" fill="white"/>
<path fill-rule="evenodd" clip-rule="evenodd" d="M11.9678 31.6343C12.3834 31.7056 12.8316 31.6343 13.218 31.5143C13.7766 31.3814 14.0851 30.7688 14.2735 30.2891H13.572L12.8154 31.0281C12.5198 31.1869 12.2341 31.4236 11.9678 31.6343Z" fill="white"/>
<path fill-rule="evenodd" clip-rule="evenodd" d="M11.8799 25.8419C12 26.4545 12.2566 27.0121 12.6138 27.5404L12.708 26.3703L11.8799 25.8419Z" fill="white"/>
<path fill-rule="evenodd" clip-rule="evenodd" d="M14.4615 28.8985C14.5103 28.5063 14.3446 28.0493 14.2992 27.6506C14.0621 27.4917 13.7309 27.5079 13.4873 27.3524C13.5035 27.9715 13.9907 28.4998 14.4615 28.8985Z" fill="white"/>
<path fill-rule="evenodd" clip-rule="evenodd" d="M13.7471 32.892C14.2439 32.7331 14.7213 32.5613 15.1792 32.3085C15.4682 31.8936 15.9099 31.5144 15.9748 31.0281C15.6111 31.1286 15.2961 31.0119 14.9584 31.1772C14.7538 31.5468 14.6271 31.9649 14.2342 32.2307C14.1725 32.4965 13.8802 32.678 13.7471 32.892Z" fill="white"/>
<path fill-rule="evenodd" clip-rule="evenodd" d="M14.5171 33.8579L15.1081 34.6261C15.4231 34.7298 15.8161 34.6974 16.0921 34.5159L15.881 33.8157C15.4621 33.9746 14.9685 33.9259 14.5171 33.8579Z" fill="white"/>
<path fill-rule="evenodd" clip-rule="evenodd" d="M15.5005 28.2924L15.7311 29.3296C16.2799 28.8823 16.3935 28.2308 16.3806 27.5403C16.0623 27.9001 15.8804 28.1206 15.5005 28.2924Z" fill="white"/>
<path fill-rule="evenodd" clip-rule="evenodd" d="M17.0532 30.1238C17.063 30.2729 17.1019 30.4155 17.1896 30.5354C17.8034 30.7526 17.8651 31.4981 18.4334 31.7834C18.8036 31.9455 19.2258 31.7412 19.5505 31.5921C19.307 31.3199 19.0309 31.1286 18.7939 30.8401C18.6282 30.7688 18.4626 30.6651 18.4724 30.4609L17.0532 30.1238Z" fill="white"/>
<path fill-rule="evenodd" clip-rule="evenodd" d="M17.5401 33.832C17.8096 34.1399 18.1734 34.2955 18.5501 34.383C18.4884 34.2955 18.589 34.383 18.6053 34.3279L18.1311 33.2939C17.8973 33.2971 17.6505 33.3457 17.4297 33.3295C17.4459 33.5013 17.4881 33.6731 17.5401 33.832Z" fill="white"/>
<path fill-rule="evenodd" clip-rule="evenodd" d="M18.3781 28.9925C18.1572 28.4836 18.0631 27.8612 18.0014 27.2972C17.7643 27.5792 17.5207 27.7608 17.2999 28.0493C17.196 28.6327 18.0306 28.7753 18.3781 28.9925Z" fill="white"/>
<path fill-rule="evenodd" clip-rule="evenodd" d="M19.3357 28.4609C19.6215 28.8272 20.2418 28.7008 20.5925 28.5938C20.4236 28.3086 19.8911 28.1432 19.7969 27.8385C19.7417 27.2972 19.6313 26.7721 19.4591 26.2762C19.1831 26.9439 18.8486 27.7381 19.3357 28.4609Z" fill="white"/>
<path fill-rule="evenodd" clip-rule="evenodd" d="M19.833 30.1238C20.6221 30.7008 21.3918 31.3653 22.4959 31.1222C22.5739 31.067 22.707 31.0735 22.7233 30.973C22.4018 30.7688 22.0543 30.61 21.723 30.4252L21.3463 29.8742H21.1742C20.7488 30.0136 20.2909 30.0687 19.833 30.1238Z" fill="white"/>
<path fill-rule="evenodd" clip-rule="evenodd" d="M19.8491 36.4964H19.9043C20.3785 36.1204 20.937 35.994 21.4956 35.8351C21.645 35.8902 21.5508 36.0556 21.6839 36.1204C22.0249 35.9778 22.4341 36.0102 22.7783 35.8902C23.1973 35.9097 23.5382 35.9162 23.876 36.0977C24.1423 36.4478 24.6456 36.4121 24.9931 36.6455L24.9379 36.0977C24.2072 35.2387 23.0641 35.1771 22.0087 35.1933L21.986 35.0831C21.7327 35.0831 21.4501 35.1382 21.2131 35.2484C20.8753 35.2614 20.5538 35.43 20.2291 35.5304C20.0797 35.8287 19.9595 36.1885 19.8491 36.4964Z" fill="white"/>
<path fill-rule="evenodd" clip-rule="evenodd" d="M20.4827 26.8402C20.7912 27.2421 21.2458 27.5468 21.7654 27.4463C21.4991 27.187 21.1906 26.9115 21.1744 26.542C21.2556 25.8418 20.4827 25.7867 20.106 25.4269C20.2294 25.8969 20.2164 26.4253 20.4827 26.8402Z" fill="white"/>
<path fill-rule="evenodd" clip-rule="evenodd" d="M20.4014 37.887H20.4955C20.9112 37.6277 21.5185 37.8254 21.9277 37.5499C22.1582 37.43 22.1712 37.7444 22.3304 37.8319C22.7168 38.0685 22.7655 38.7719 23.3078 38.6099C23.9606 38.947 23.795 39.7411 23.8177 40.3246L24.425 39.9453C24.3698 39.6406 24.5419 39.2679 24.347 39.0021C24.1977 38.665 23.7885 38.6358 23.5904 38.3603C23.8274 37.9583 23.2916 37.7703 23.1812 37.4786L23.2137 37.4397L24.045 37.5499C24.3308 37.7217 24.4315 38.0361 24.5192 38.3278C25.1751 38.4381 25.331 39.1739 25.5616 39.6471C25.6947 39.323 25.7499 38.9794 25.8831 38.665C25.8928 38.4056 25.5454 38.4056 25.3732 38.289C25.3245 37.887 25.1427 37.5078 24.7887 37.2679C24.0645 37.0864 23.428 36.6844 22.6324 36.6844L21.9699 36.8887C21.6062 36.9762 21.2197 36.866 20.9469 37.1156C20.5345 37.148 20.502 37.5953 20.4014 37.887Z" fill="white"/>
<path fill-rule="evenodd" clip-rule="evenodd" d="M20.8169 34.6488L20.9695 34.7201C21.291 34.571 21.6125 34.3992 21.9535 34.2728C22.4796 34.1237 22.8888 34.7201 23.3304 34.3441C23.4961 34.2241 23.6389 34.3992 23.7656 34.4932C23.9539 34.84 24.3956 34.8141 24.7268 34.9081C24.5612 34.4608 24.3566 33.8481 23.7818 33.7768C23.5513 33.6731 23.285 33.6861 23.0641 33.5499C22.4569 32.8822 22.0639 34.0977 21.4014 33.7995C21.1644 34.0621 20.8753 34.3052 20.8169 34.6488Z" fill="white"/>
<path fill-rule="evenodd" clip-rule="evenodd" d="M20.9692 38.4769C21.2193 38.6876 21.4791 39.0506 21.872 39.002C22.3624 39.2289 22.1578 39.874 22.4241 40.2111L22.7066 39.9582L22.6839 39.9453L22.7261 39.9064L22.7424 39.9291C22.8203 39.6924 22.7099 39.2743 22.5735 39.002C22.3949 38.8756 22.1805 39.0085 22.0084 38.8918C21.9857 38.639 21.8266 38.5126 21.6447 38.357C21.5181 38.263 21.3524 38.3894 21.2128 38.3797L20.9692 38.4769Z" fill="white"/>
<path fill-rule="evenodd" clip-rule="evenodd" d="M21.9536 28.8985C22.2134 29.3329 22.7168 29.5987 23.1195 29.8969C23.4474 30.046 23.8826 30.0849 24.2366 30.0071C23.8988 29.7315 23.5903 29.4171 23.3078 29.0865C23.1974 28.9309 23.1747 28.7332 23.0253 28.5938C22.6518 28.6651 22.2361 28.6554 21.9536 28.8985Z" fill="white"/>
<path fill-rule="evenodd" clip-rule="evenodd" d="M22.3882 26.0882C22.7519 26.5323 23.3105 26.354 23.8203 26.3702V26.3151L23.0344 25.6539C22.8136 25.7252 22.5765 25.9197 22.3882 26.0882Z" fill="white"/>
<path fill-rule="evenodd" clip-rule="evenodd" d="M7.88867 18.6783L8.34332 20.0916C8.33682 19.2909 8.70703 18.6232 8.62909 17.8064L8.96683 17.304L8.24914 17.5244C8.06079 17.8842 7.90491 18.2472 7.88867 18.6783Z" fill="white"/>
<path fill-rule="evenodd" clip-rule="evenodd" d="M8.19727 16.2278L8.81753 15.8648V14.9442C8.55773 15.103 8.41485 15.3688 8.21026 15.5828L8.19727 16.2278Z" fill="white"/>
<path fill-rule="evenodd" clip-rule="evenodd" d="M20.9696 17.6573C20.8203 17.855 20.5929 17.9004 20.4046 17.9393C20.7326 17.3364 20.8917 16.4936 20.6319 15.8097C20.804 15.7481 20.9956 15.7157 21.1612 15.6217L21.1418 15.6055L21.5769 15.2262C22.1517 14.834 21.9309 14.0885 22.1452 13.531C21.8594 13.0902 21.775 12.5586 21.3658 12.1858L21.3886 12.1728C21.0638 11.7644 20.4825 11.8098 20.0409 11.6056C19.4563 11.4111 19.0082 11.8098 18.5925 12.0788C18.4106 12.108 18.5211 12.3446 18.323 12.3381C18.2125 12.6299 18.0794 12.941 18.0015 13.2652C17.2188 13.1517 16.3777 13.2425 15.7575 13.6801C15.423 13.437 15.0235 13.3916 14.6371 13.2814C14.3546 13.2263 14.0298 13.3268 13.8285 13.1679C13.5297 12.8341 13.4648 12.2182 12.9517 12.1339C12.7698 12.0691 12.7308 11.8746 12.7308 11.6996C12.3931 11.6477 12.0911 11.4889 11.7631 11.4176C11.2597 11.1907 10.857 11.5537 10.4803 11.7936C10.3147 11.8649 10.1231 11.8876 9.96724 11.9848C9.68471 12.4224 9.41517 12.873 9.23656 13.3592C9.29176 13.7579 9.46388 14.1144 9.66847 14.4515C9.85033 14.9605 10.4154 15.3624 10.896 15.5666C10.6687 16.3445 10.6687 17.2716 10.896 18.056L10.883 18.0657L10.857 18.0884C10.7823 18.0884 10.7044 18.1014 10.6395 18.0657H10.6297C10.7401 18.8145 11.0941 19.4725 11.6689 20.0365C11.8735 20.1078 11.8248 20.3509 11.9125 20.5065C11.9677 20.5778 11.9742 20.7269 11.9514 20.7885C10.7239 20.7496 9.6295 21.0576 8.64227 21.6151C8.39222 21.7415 8.50263 22.0883 8.4799 22.3282C9.17161 21.8744 9.92177 21.5373 10.7466 21.3882C11.1006 21.3655 11.5033 21.278 11.841 21.372L11.88 22.0462C10.9447 22.5356 9.92177 22.8176 9.1164 23.6183C9.13264 23.8614 9.08717 24.1466 9.15537 24.3508L9.87306 23.7674C10.5648 23.2423 11.289 22.795 12.0878 22.5032C12.2989 22.7561 12.5197 23.0219 12.8055 23.1774C13.2829 22.8728 13.8057 22.6459 14.3546 22.5032C14.6468 22.3314 15.1112 22.487 15.2996 22.1434L15.436 21.4271C15.41 21.4109 15.397 21.3817 15.3548 21.3882C14.9846 21.1775 14.741 20.808 14.7735 20.3769C14.6468 20.4384 14.5072 20.4773 14.3546 20.4838C14.2279 20.4547 14.111 20.4222 14.0558 20.2958C14.0493 20.1402 13.9681 19.9036 14.1272 19.7869C14.6371 19.4725 15.2996 19.4563 15.9458 19.5049C16.4264 19.5665 17.1214 19.5406 17.2838 20.1078C17.2643 20.2731 17.2773 20.4547 17.1117 20.5649C16.9395 20.6589 16.7414 20.5551 16.5856 20.4871C16.4589 20.8696 16.2478 21.3039 15.8127 21.4271L15.8679 21.8841C15.9231 22.0883 15.9393 22.4254 16.2641 22.3541C17.011 22.5356 17.6702 22.9214 18.3262 23.3395C18.547 23.1159 18.7192 22.8663 18.875 22.6394C20.0409 23.0316 21.0508 23.9035 22.0121 24.7106L22.051 24.0526C21.1385 23.2423 20.1188 22.6685 19.0666 22.2212C19.1056 22.0105 19.1511 21.8031 19.1608 21.5762C20.4111 21.6475 21.5997 22.0332 22.6323 22.6394L22.6161 22.0721C21.5315 21.4919 20.3396 21.1062 19.0407 21.09C18.9919 21.0187 18.9789 20.9182 18.9854 20.8469C19.6187 20.7431 20.0636 20.0916 20.2162 19.5244C20.5377 19.1581 21.0054 18.7562 20.895 18.2084C20.9079 18.163 20.9242 18.1144 20.9404 18.0657C20.9826 17.9296 21.0184 17.7837 20.9696 17.6573Z" fill="white"/>
<path fill-rule="evenodd" clip-rule="evenodd" d="M22.0669 19.6767L22.7099 19.4725L22.7813 19.1095C22.9632 18.5843 22.5767 18.1921 22.3884 17.774L22.0669 19.6767Z" fill="white"/>
<path fill-rule="evenodd" clip-rule="evenodd" d="M23.6937 22.1661C24.0023 22.5032 24.301 23.0478 24.8466 22.8792C24.8044 22.6523 24.6777 22.4643 24.5998 22.2601C24.4569 22.0948 24.4114 21.6248 24.1289 21.7901C23.9146 21.6475 23.8594 21.4108 23.7262 21.2228C23.6645 21.5146 23.7035 21.8744 23.6937 22.1661Z" fill="white"/>
<path fill-rule="evenodd" clip-rule="evenodd" d="M23.8047 24.4675C23.9248 24.6328 23.9573 24.8467 24.071 24.9926C24.2853 25.1352 24.6003 25.1125 24.8601 25.0866C25.0972 25.0347 25.2466 25.2908 25.4674 25.1417C25.1914 24.9699 25.029 24.6555 24.7659 24.4286C24.4574 24.1855 24.1294 24.3962 23.8047 24.4675Z" fill="white"/>
<path fill-rule="evenodd" clip-rule="evenodd" d="M24.2235 28.1206C24.7658 28.4447 25.4575 28.7591 26.1817 28.6489C26.2596 28.6068 26.396 28.6165 26.409 28.5225C25.9609 28.3637 25.49 27.9164 25.0191 27.8224C24.7593 27.4204 24.4216 27.9261 24.0903 27.8937C24.0968 27.9877 24.191 28.059 24.2235 28.1206Z" fill="white"/>
<path fill-rule="evenodd" clip-rule="evenodd" d="M25.8604 35.0572L25.9773 35.31C26.0974 36.1269 26.617 36.8821 26.3312 37.7767C26.5683 37.9421 26.6397 38.2176 26.7891 38.4347H26.8281C27.01 37.754 26.8833 37.0442 26.7891 36.3602C26.8606 35.7411 26.2306 35.3781 25.8604 35.0572Z" fill="white"/>
<path fill-rule="evenodd" clip-rule="evenodd" d="M25.9961 27.012C26.4053 27.3264 27.058 27.3588 27.5289 27.2032C27.2301 27.0379 26.9021 26.8564 26.6553 26.636L25.9961 27.012Z" fill="white"/>
<path fill-rule="evenodd" clip-rule="evenodd" d="M27.9384 29.4269C27.8995 29.7575 28.1203 30.0298 28.3574 30.1951C28.4418 30.0006 28.5847 29.8353 28.5977 29.6149C28.5295 29.2778 28.3411 28.9698 28.0326 28.7429C27.9774 28.9633 27.9157 29.174 27.9384 29.4269Z" fill="white"/>
<path fill-rule="evenodd" clip-rule="evenodd" d="M27.9646 33.0087C27.9062 33.375 28.3154 33.4236 28.4907 33.6278C28.6336 33.7996 28.3966 33.9195 28.3966 34.0848C28.6953 34.4673 28.8674 34.9082 28.8674 35.4203C28.9876 34.9406 29.1662 34.4835 29.2312 33.9908C29.2019 33.644 28.6499 33.7153 28.7343 33.3296C28.8934 32.9374 28.7051 32.5516 28.6012 32.1983C28.5687 32.1432 28.4972 32.033 28.4355 32.0654C28.2926 32.3863 27.9387 32.6132 27.9646 33.0087Z" fill="white"/>
<path fill-rule="evenodd" clip-rule="evenodd" d="M29.0425 31.1383L29.4517 31.9293C29.6335 31.9098 29.7504 31.7348 29.8901 31.6116C30.0037 31.281 29.7115 31.067 29.6238 30.8012C29.5523 30.61 29.6238 30.3604 29.4906 30.1951C29.3867 30.1335 29.2698 30.0298 29.1496 30.059L29.0425 31.1383Z" fill="white"/>
<path fill-rule="evenodd" clip-rule="evenodd" d="M29.5688 29.0477C29.8936 29.2454 30.2606 29.5274 30.4327 29.871C30.712 30.6749 31.1536 31.3977 31.4751 32.1756C31.592 32.717 31.6862 33.1999 31.8356 33.7348C31.894 33.8741 31.8616 34.1497 32.0824 34.127C32.1441 33.5306 32.2642 32.9568 32.2707 32.3345C32.0759 32.0784 31.8128 31.9682 31.5693 31.8094V31.7543C31.6018 31.6214 31.7122 31.4625 31.8778 31.4885C31.946 31.4074 32.1603 31.3296 32.0661 31.1902C31.657 30.7818 31.6797 30.0784 31.027 29.952C30.7996 29.858 30.7412 29.6214 30.7217 29.401C30.4132 29.1449 29.9553 29.0542 29.5688 29.0477Z" fill="white"/>
<path fill-rule="evenodd" clip-rule="evenodd" d="M29.9455 33.3068C30.3482 33.6731 30.2086 34.2079 30.1761 34.7039C30.1112 35.0021 30.4911 34.8303 30.608 34.9859C30.8516 35.3489 30.7119 35.874 30.6242 36.2695C30.8386 35.9453 31.0821 35.6633 31.2478 35.31C31.238 35.1739 31.4101 35.1123 31.4036 34.9502C31.4751 34.7201 31.2088 34.8238 31.0984 34.7979C31.0042 34.7752 30.9003 34.7103 30.9295 34.5872C31.1373 34.1917 30.949 33.7217 30.8678 33.3295C30.7736 33.0053 30.91 32.5742 30.7574 32.2922C30.5073 32.6391 29.7572 32.7169 29.9455 33.3068Z" fill="white"/>
<path fill-rule="evenodd" clip-rule="evenodd" d="M30.6792 27.7284C31.3807 28.435 31.8938 29.1449 32.6472 29.8288C32.6634 29.5241 32.6244 29.2389 32.6082 28.9407C32.4978 28.73 32.2932 28.5744 32.1211 28.4156C31.5625 28.3605 31.2702 27.6085 30.6792 27.7284Z" fill="white"/>
<path fill-rule="evenodd" clip-rule="evenodd" d="M32.5137 31.4722C32.5299 31.5435 32.5624 31.6051 32.5916 31.6764C32.9001 32.1788 33.1891 32.6974 33.4035 33.2387C33.3418 32.6585 33.7347 31.9357 33.2151 31.4884C33.1437 31.3004 32.9066 31.362 32.7572 31.3782L32.5137 31.4722Z" fill="white"/>
<path fill-rule="evenodd" clip-rule="evenodd" d="M34.4043 37.2127C34.6251 37.3132 34.9077 37.1317 35.122 37.0085C35.3201 36.9599 35.4857 37.0701 35.6351 37.1706C35.6968 37.297 35.6351 37.4137 35.6578 37.5336C36.1287 37.6665 36.5931 37.8383 37.012 38.1139L37.1452 37.981C37.1776 37.6438 36.9081 37.4007 36.658 37.2127C36.4924 37.1155 36.2456 37.1706 36.1287 37.0215C36.2099 36.8983 36.2099 36.7071 36.2001 36.5677C35.9403 36.5677 35.7747 36.4867 35.5604 36.3602C35.4305 36.3246 35.3103 36.2144 35.1999 36.3602C34.807 36.6293 34.7843 37.0215 34.4043 37.2127Z" fill="white"/>
<path fill-rule="evenodd" clip-rule="evenodd" d="M34.9562 27.3232C35.1543 27.2713 35.3589 27.213 35.5245 27.0736C36.0506 26.5938 36.8137 26.9147 37.4275 26.9083C37.3106 26.6943 37.145 26.4836 36.9956 26.3021C36.7748 26.2178 36.5702 26.1141 36.3169 26.1141C35.781 25.7997 35.4206 26.328 35.0114 26.5841C34.901 26.7981 34.8458 27.1125 34.9562 27.3232Z" fill="white"/>
<path fill-rule="evenodd" clip-rule="evenodd" d="M34.9725 28.9406C34.9725 28.9212 34.9725 28.8952 34.9952 28.8888C35.0667 28.9503 34.9855 29.0994 35.1057 29.1319C35.3102 29.0281 35.4986 28.8888 35.687 28.7559C36.2163 28.7559 36.5313 28.2437 37.0509 28.2437C37.9147 28.3993 38.7753 28.5743 39.5319 28.999C39.4767 28.4868 39.0351 28.0233 38.5869 27.7932C38.3336 27.7089 38.1388 27.8418 37.9569 27.9844C37.4276 28.315 37.7036 27.5047 37.3334 27.4885C36.8528 27.6408 36.3559 27.8029 35.8233 27.7575C35.5083 27.8742 35.2843 28.1627 34.9335 28.1335C34.9173 28.3928 34.8783 28.7072 34.9725 28.9406Z" fill="white"/>
<path fill-rule="evenodd" clip-rule="evenodd" d="M35.336 30.6942C35.4983 30.866 35.7744 30.8368 36.0114 30.866L36.6967 30.6002C36.7032 30.4738 36.4921 30.4414 36.5375 30.302C36.7259 30.0913 36.9889 30.2404 37.2228 30.1529C37.554 30.1043 37.895 29.7769 38.223 30.02C38.2165 30.0589 38.2392 30.114 38.21 30.1529C38.1028 30.396 38.2782 30.5451 38.4665 30.6391C38.853 30.7104 39.2167 31.0637 39.6031 30.9049C39.5642 30.584 39.4765 30.2858 39.3953 29.9779C39.0738 29.9228 38.8465 29.657 38.5477 29.5468C38.4113 29.6732 38.2392 29.7672 38.0736 29.751C37.4663 29.6083 36.7421 29.2323 36.1284 29.6181C35.9075 29.8839 35.5146 29.8061 35.2158 29.9228C35.2321 30.1918 35.2613 30.4511 35.336 30.6942Z" fill="white"/>
<path fill-rule="evenodd" clip-rule="evenodd" d="M35.593 35.3651C35.5475 35.498 35.4143 35.7184 35.6579 35.78C36.1613 35.7962 36.8075 35.5369 37.2005 35.9291C37.3336 36.0328 37.2719 36.2435 37.2654 36.3797L37.9246 36.9307C37.9896 36.5968 38.1065 36.2986 38.113 35.9453C38.061 35.6957 37.9344 35.4494 37.7136 35.2841C37.2784 35.2841 37.0251 34.7784 36.5607 34.8432C36.3171 34.7881 36.1061 35.0021 35.8593 35.0021C35.7521 35.1123 35.6871 35.2484 35.593 35.3651Z" fill="white"/>
<path fill-rule="evenodd" clip-rule="evenodd" d="M35.7844 31.6602C35.8851 31.8709 36.0053 32.2177 36.2001 32.2436C36.6645 32.0394 37.3432 31.913 37.8628 32.1334C38.0349 32.1626 38.0349 32.3603 37.996 32.4867C38.2655 32.6423 38.587 32.7688 38.8728 32.9405L38.7916 32.4705C38.7753 31.9584 38.1291 31.913 38.0901 31.4074C37.564 31.2356 36.973 31.1805 36.4144 31.3134C36.2326 31.4787 35.9728 31.456 35.752 31.5046C35.7357 31.5662 35.7747 31.6051 35.7844 31.6602Z" fill="white"/>
<path fill-rule="evenodd" clip-rule="evenodd" d="M35.9178 34.2079C36.2263 34.1204 36.4212 33.7833 36.7524 33.7509C37.2558 33.7606 37.7072 33.9616 38.0189 34.3959C38.2105 34.5191 38.1715 34.8433 38.4151 34.8433C38.3437 34.4575 38.4703 34.1042 38.4541 33.712C38.1228 33.161 37.3045 33.5856 36.996 32.9406L36.4147 32.9794C35.9957 33.0832 36.1094 33.5694 36.0509 33.9C36.0055 34.0037 35.9113 34.0815 35.9178 34.2079Z" fill="white"/>
<path fill-rule="evenodd" clip-rule="evenodd" d="M38.8081 37.6439C39.0517 38.1301 39.5875 38.4996 39.6427 39.0571C39.7694 38.908 39.8538 38.7362 39.9415 38.5709C39.935 38.4121 39.7531 38.4121 39.6817 38.2889C39.6102 38.0847 39.7206 37.9032 39.7531 37.7216C39.6492 37.4299 39.4056 37.1544 39.1296 36.9826L38.8081 37.6439Z" fill="white"/>
<path fill-rule="evenodd" clip-rule="evenodd" d="M39.7788 36.4024L40.3439 37.1706C40.5874 36.7849 40.5874 36.2209 40.4933 35.7574C40.438 35.6699 40.3341 35.5305 40.1945 35.5921C39.9802 35.8125 39.9509 36.1496 39.7788 36.4024Z" fill="white"/>
<path fill-rule="evenodd" clip-rule="evenodd" d="M37.4663 14.8955C37.6741 14.9993 37.869 15.0933 38.1126 15.1095C38.2814 15.0219 38.4925 14.9604 38.6971 15.0155C38.9894 15.2035 39.3433 14.9733 39.6811 14.9895C39.3823 14.7075 39.0413 14.5357 38.6971 14.3704C38.2554 14.4644 37.9015 14.7788 37.4663 14.8955Z" fill="white"/>
<path fill-rule="evenodd" clip-rule="evenodd" d="M40.5483 15.6346C40.964 15.6735 41.266 16.043 41.5486 16.351C41.9025 16.4061 42.1721 16.6557 42.3832 16.9182L42.25 16.5001C42.1558 16.0819 41.896 15.761 41.6265 15.4304C41.2498 15.4564 40.8796 15.4855 40.5483 15.6346Z" fill="white"/>
<path fill-rule="evenodd" clip-rule="evenodd" d="M11.1554 12.189L11.3828 12.2117C11.9998 12.5164 12.9902 12.6752 13.0455 13.5634C12.4252 13.8065 11.8277 14.1371 11.3308 14.6395C10.9508 14.2538 10.1877 14.4645 10.061 13.7903C10.1812 13.155 10.4085 12.3543 11.1554 12.189Z" fill="#3A2F2A" fill-opacity="0.8"/>
<path fill-rule="evenodd" clip-rule="evenodd" d="M11.7463 16.1727C12.464 16.1111 13.1557 16.2083 13.8994 16.15C14.078 16.2278 14.2663 16.3833 14.354 16.5649C14.3313 17.4141 14.0715 18.2245 14.0293 19.0932C13.7078 19.2293 13.3928 19.4951 13.3148 19.8484C13.0226 19.9359 12.7628 20.1077 12.4802 20.2406C12.3536 19.9748 12.3763 19.5729 12.5971 19.3557C12.9056 18.9214 13.7013 19.0251 13.6363 18.3412C13.8409 18.0105 13.6461 17.5859 13.6526 17.2391C13.5746 16.9798 13.4967 17.3266 13.37 17.3169C13.1167 17.372 12.8569 17.3882 12.6394 17.265C12.4705 17.09 12.2659 16.9506 12.2204 16.714C11.9996 16.6038 11.7398 16.432 11.6294 16.2018L11.7463 16.1727Z" fill="#3A2F2A" fill-opacity="0.8"/>
<path fill-rule="evenodd" clip-rule="evenodd" d="M12.6138 21.2941C12.9515 21.3395 13.3055 21.1937 13.5977 21.3557C13.536 21.4659 13.3704 21.5146 13.2373 21.547L12.7079 21.7901C12.5098 21.7415 12.6202 21.427 12.6138 21.2941Z" fill="#3A2F2A" fill-opacity="0.8"/>
<path fill-rule="evenodd" clip-rule="evenodd" d="M13.9941 14.7335C14.3286 14.6233 14.6924 14.3964 15.0561 14.5066C14.7963 14.7659 14.5917 15.103 14.3936 15.4174L13.3154 15.3948C13.4323 15.1127 13.7311 14.8761 13.9941 14.7335Z" fill="#3A2F2A" fill-opacity="0.8"/>
<path fill-rule="evenodd" clip-rule="evenodd" d="M17.1508 14.4742C17.599 14.3964 17.5762 14.9766 17.9854 15.0026C18.0569 15.0966 18.1608 15.1809 18.1186 15.3235C17.8815 15.4175 17.5373 15.3689 17.2677 15.4337C16.9138 15.236 17.1443 14.6233 16.5825 14.6622C16.5533 14.6169 16.4883 14.5229 16.5663 14.4904C16.7416 14.4289 16.969 14.4515 17.1508 14.4742Z" fill="#3A2F2A" fill-opacity="0.8"/>
<path fill-rule="evenodd" clip-rule="evenodd" d="M16.8676 16.5811C17.0625 16.3056 17.3645 16.2829 17.647 16.2278L19.6864 16.2667C19.7741 16.3445 19.6085 16.4158 19.6085 16.5098C19.4818 16.6265 19.3 16.6589 19.1896 16.7691C18.9233 16.7788 18.946 17.09 18.7576 17.2261C18.4654 17.5146 18.0399 17.3817 17.7022 17.3363C17.5821 17.2488 17.4489 17.1289 17.3937 16.996L17.2995 17.09C17.4197 17.5308 17.3872 18.0203 17.4716 18.4644L17.9588 18.7885C17.9685 19.5113 18.8193 19.3136 19.1896 19.7155C19.1019 19.9749 18.9298 20.1953 18.7414 20.4157C18.4426 20.124 18.1049 19.936 17.7412 19.8096C17.712 19.3849 17.2443 19.1353 16.9845 18.9214C16.9131 18.1532 16.8968 17.3655 16.7734 16.62L16.8676 16.5811Z" fill="#3A2F2A" fill-opacity="0.8"/>
<path fill-rule="evenodd" clip-rule="evenodd" d="M17.6087 21.4271H18.5537L18.4336 21.923L17.4885 21.5211C17.4658 21.4433 17.5535 21.4206 17.6087 21.4271Z" fill="#3A2F2A" fill-opacity="0.8"/>
<path fill-rule="evenodd" clip-rule="evenodd" d="M19.3067 12.5261L20.0081 12.3057C20.4108 12.4937 20.7908 12.7304 21.1577 12.9961C21.45 13.5342 21.4013 14.2538 21.2681 14.8502C21.057 15.0869 20.5927 14.8502 20.4173 15.2262H20.3881C20.125 14.4904 19.3879 13.8292 18.7026 13.4921C18.8131 13.1161 18.93 12.7466 19.3067 12.5261Z" fill="#3A2F2A" fill-opacity="0.8"/>
<path fill-rule="evenodd" clip-rule="evenodd" d="M35.7357 42.4574H39.9379C40.5581 42.3634 41.2206 42.3796 41.7175 41.9225C43.8218 42.2467 45.9554 41.728 47.6084 40.5741C48.482 39.8707 49.2646 39.0571 49.8978 38.169C50.4564 37.3878 50.8981 36.6552 51.1838 35.78C51.3982 35.2387 51.5638 34.678 51.6905 34.0977C52.2912 31.3782 51.9762 28.3313 51.0897 25.7381C50.9251 25.2584 50.7411 24.796 50.5376 24.3508C49.4302 22.0624 47.9201 19.5956 45.595 18.15C44.283 17.3364 43.0814 16.0755 42.341 14.7724C41.9383 14.4094 41.5519 13.9296 41.0323 13.8421C41.1752 14.0787 41.331 14.3056 41.37 14.5812L41.3408 14.6201C40.7887 14.6363 40.3535 14.3478 39.9768 13.9912L40.3958 13.6152C40.2366 13.5374 40.0548 13.505 39.8827 13.4661C38.2914 13.2846 36.9827 14.0139 35.5765 14.3705L35.5506 14.4483C36.4176 14.8308 36.5995 15.7837 37.1028 16.4288C37.2295 16.2764 37.4406 16.3866 37.6159 16.3704C37.866 16.3866 38.1031 16.5682 38.3466 16.5066C38.3531 16.2926 38.2362 16.1306 38.1972 15.9426C38.3466 15.868 38.5285 15.9328 38.6941 15.9426C39.1487 16.2084 39.8827 15.8939 40.1652 16.5066C39.6456 16.539 39.1585 16.6459 38.6714 16.7659C38.7006 16.9604 38.8987 17.1192 38.8825 17.3169C38.4635 17.1419 38.0251 17.0349 37.5575 16.9766L37.538 17.0479C38.129 17.7383 38.9377 18.1467 39.7658 18.3931C40.9543 18.6654 42 18.1013 43.1496 18.2991C45.9717 19.5859 48.3813 22.5324 49.4302 25.3297C49.48 25.4658 49.5287 25.602 49.5763 25.7381C50.4532 28.2924 50.6188 31.4333 49.742 34.0977C49.2743 35.2063 48.758 36.25 47.9331 37.1544C47.6214 37.5369 47.2739 37.8772 46.9004 38.169C45.7151 39.0863 44.2603 39.4915 42.7567 39.0798C42.6657 39.0182 42.4741 38.9988 42.5034 38.8367C42.5586 38.6163 42.6073 38.3926 42.6495 38.169C42.8996 36.8886 43.0132 35.5467 42.9483 34.2047C42.945 34.1464 42.9418 34.088 42.9418 34.0329C42.8573 32.0816 42.4676 30.328 41.75 28.6424C41.2888 27.6765 40.7432 26.6198 40.0515 25.6733C39.2299 24.542 38.2102 23.5664 36.8983 23.0802C36.0929 22.8662 35.0992 22.8273 34.4951 23.4951C34.06 23.8743 33.8814 24.3832 33.9431 24.9407C33.2676 25.3718 32.5044 25.602 31.6763 25.6733C31.4717 25.6895 31.2639 25.7641 31.0528 25.7608C30.8547 25.7705 30.6566 25.7608 30.4683 25.7381C29.468 25.615 28.4581 25.0801 27.6917 24.4642C27.6754 24.0591 27.6527 23.6733 27.6365 23.2422C27.1981 23.0121 26.8344 22.581 26.8019 22.0688L26.8441 22.0299C27.0942 22.1077 27.315 22.2342 27.5423 22.3703C27.4416 21.7577 27.3247 21.1515 27.0162 20.6167C26.7337 20.5 26.4479 20.406 26.1816 20.2634C25.8731 20.0592 25.675 19.6896 25.6295 19.3525C25.9056 19.6183 26.3862 19.5243 26.5973 19.8063C26.2303 18.7172 26.2206 17.466 25.6133 16.4677C25.308 15.7286 24.5027 15.3915 23.9506 14.8502C23.7395 14.5909 23.6518 14.2311 23.2654 14.189C22.9536 14.1112 22.9277 13.7578 22.8725 13.5309C23.0705 13.5536 23.2362 13.6865 23.4018 13.7189C22.9439 12.5067 22.5412 11.1647 21.3072 10.3965L21.0928 10.5294C20.6122 10.6007 20.1024 10.6299 19.6217 10.6461C19.8328 10.3317 20.2095 10.1988 20.5115 10.0561C20.1641 9.79683 19.8783 9.73524 19.4431 9.66393C19.1931 9.91676 18.7384 10.0399 18.4137 10.1112L18.378 10.0821C18.3682 9.80007 18.3033 9.45 18.7287 9.38193C18.3195 9.1842 17.6408 9.262 17.2219 9.38193C17.105 9.68662 16.7705 9.96214 16.79 10.3219C16.5496 10.5748 16.3743 10.9119 16.121 11.0934C16.1145 10.4873 16.371 9.92973 16.4814 9.42083C16.1275 9.55372 15.767 9.74173 15.4228 9.90704C14.8642 9.58614 14.2732 9.262 13.6756 9.02213C13.6204 8.9962 13.5003 8.97351 13.5263 9.07399C14.0361 9.44352 13.838 10.1339 13.8932 10.6623L13.5717 10.3965C13.4126 9.99456 12.9579 9.70283 12.88 9.262C12.3442 9.36572 12.0032 9.50834 11.5063 9.71904L11.4381 9.75793C11.8051 9.75793 12.1201 10.0497 12.302 10.3381C11.7434 10.3706 11.2465 10.1501 10.6977 10.0983C10.6425 10.0399 10.5938 9.97835 10.5061 9.98807C10.2301 10.0886 9.99626 10.2863 9.74945 10.4743C9.20712 11.0091 8.65506 11.5991 8.39526 12.3057C8.57712 12.3349 8.80769 12.3284 8.94083 12.4386C8.64207 12.6201 8.38227 12.9248 8.09 13.0998C7.98608 13.5083 8.00232 13.9718 7.97958 14.4191C7.75226 14.7627 7.44375 15.0706 7.29437 15.4563C6.80725 17.0349 6.6806 18.7853 6.75204 20.5778C6.59292 20.7269 6.38833 20.8241 6.23894 20.9408L6.25518 22.5421H6.29415C6.36559 22.205 6.76828 22.017 7.01184 21.7868H7.08978C7.05081 22.1499 7.00534 22.5097 6.9956 22.8792L6.53771 23.2584C6.08306 23.6571 6.46951 24.26 6.43054 24.7657C6.46302 24.8986 6.4825 25.0963 6.57993 25.1255C6.63513 24.931 6.80725 24.7884 6.91766 24.6166C7.11251 24.568 7.28787 24.4124 7.46648 24.3897C7.36581 24.7787 7.23267 25.1644 7.07354 25.5436C6.99885 25.5923 6.91117 25.6603 6.83323 25.7381C6.75529 25.8256 6.69034 25.9229 6.6741 26.0299C7.02808 27.8937 7.58664 29.7316 8.22314 31.4819C7.79123 32.2112 7.54442 33.0735 7.18395 33.8287C7.13199 33.9324 7.08653 34.0394 7.04107 34.1496C6.6806 35.0637 6.57018 36.0847 6.11879 36.9632C5.94018 36.8367 5.74208 36.7427 5.53749 36.6552C4.68665 36.3732 3.70267 36.5547 3.08241 37.2063C2.53034 37.1025 1.96203 37.1965 1.52687 37.4883C1.21836 37.7217 0.978051 38.0004 0.83841 38.331C0.747481 38.5579 0.702016 38.8043 0.718254 39.0766C0.36428 39.3197 0.17268 39.6957 0.055771 40.0749C-0.10985 40.9242 0.188917 41.8058 0.676037 42.4574H35.7357Z" fill="white"/>
<path fill-rule="evenodd" clip-rule="evenodd" d="M10.6521 18.0105C10.6489 18.0073 10.6457 18.0041 10.6392 18.0009C10.6392 18.0041 10.6424 18.0073 10.6424 18.0105H10.6521Z" fill="white"/>
<path fill-rule="evenodd" clip-rule="evenodd" d="M14.9448 40.3212C15.2533 40.1268 15.7502 40.0781 15.8184 39.6243C15.695 39.5271 15.5845 39.4104 15.4417 39.378L15.1202 39.472C15.1429 39.284 15.2436 39.0733 15.3085 38.8691L16.3477 38.532C16.2048 39.002 16.1529 39.5919 16.1041 40.1332C16.1983 40.9339 16.3152 41.7928 16.7277 42.4573H15.6073C15.4806 41.7215 14.7077 41.1867 14.9448 40.3212Z" fill="#3A2F2A" fill-opacity="0.8"/>
<path fill-rule="evenodd" clip-rule="evenodd" d="M17.3644 39.378H17.4261L18.1828 40.0619L18.2932 40.0392C18.2315 40.8399 18.1925 41.6275 18.1828 42.4573H17.3644C17.1988 41.6826 16.9228 40.8626 16.9553 40.023C17.0949 39.8123 17.1891 39.5433 17.3644 39.378Z" fill="#3A2F2A" fill-opacity="0.8"/>
<path fill-rule="evenodd" clip-rule="evenodd" d="M19.0501 40.1332C19.1995 39.9387 19.2612 39.6081 19.56 39.5692C19.7743 39.5757 19.9724 39.6081 20.1315 39.7572C20.4043 40.1008 20.1348 40.5449 20.0373 40.8885C19.9237 41.4168 19.7353 41.9646 19.5632 42.4606H18.7676L19.0501 40.1332Z" fill="#3A2F2A" fill-opacity="0.8"/>
<path fill-rule="evenodd" clip-rule="evenodd" d="M30.9969 39.8901C31.169 40.1105 31.2242 40.4087 31.484 40.6065C31.7146 40.2921 31.7698 39.8026 31.6594 39.4039L31.4321 39.1738C31.7211 39.1057 32.0296 39.0798 32.3219 39.0247C32.1952 39.4428 31.9582 39.8188 31.9971 40.305C32.0069 41.0149 32.1238 41.7215 32.1855 42.4573H31.3217C31.0067 41.7669 30.6884 41.1089 30.7144 40.305C30.8086 40.1656 30.8703 40.0003 30.9969 39.8901Z" fill="#3A2F2A" fill-opacity="0.8"/>
<path d="M13.5254 9.07405C13.4995 8.97357 13.6196 8.99636 13.6749 9.0223C14.2723 9.26537 14.8634 9.58589 15.4219 9.90999C15.7661 9.74146 16.1266 9.55363 16.4805 9.42073C16.3701 9.93288 16.1137 10.4907 16.1202 11.0936C16.3735 10.9153 16.5488 10.5779 16.7891 10.325C16.7697 9.96205 17.1039 9.68957 17.2208 9.38167C17.6395 9.26502 18.3184 9.18741 18.7276 9.38167C18.3026 9.45308 18.3672 9.79996 18.377 10.0819L18.4131 10.1112C18.7379 10.0398 19.1924 9.91668 19.4424 9.6639C19.8776 9.73521 20.1633 9.80041 20.5108 10.0565C20.2088 10.1991 19.8322 10.332 19.6211 10.6463C20.1017 10.6301 20.6113 10.6004 21.0918 10.5291L21.3067 10.3963C22.5406 11.1645 22.9436 12.5096 23.4014 13.7186C23.2359 13.6862 23.07 13.5539 22.8721 13.5311C22.9273 13.758 22.9531 14.1115 23.2647 14.1893C23.6511 14.2315 23.7392 14.5911 23.9502 14.8504C24.5023 15.3915 25.3071 15.732 25.6124 16.4676C26.2196 17.4659 26.2298 18.7171 26.5967 19.8094C26.3857 19.5242 25.905 19.6214 25.629 19.3524C25.6744 19.6895 25.8722 20.0593 26.1807 20.2635C26.447 20.4061 26.7331 20.5003 27.0157 20.617C27.324 21.1517 27.4414 21.7575 27.542 22.37C27.3148 22.2339 27.0937 22.1108 26.8438 22.033L26.8008 22.0721C26.8333 22.581 27.1974 23.0151 27.6358 23.242C27.652 23.6731 27.6742 24.0592 27.6905 24.4676C28.4569 25.0802 29.4676 25.6149 30.4678 25.7381C30.656 25.764 30.8539 25.7742 31.0518 25.7645C31.2629 25.7645 31.4712 25.6899 31.6758 25.6737C32.5039 25.6056 33.267 25.3713 33.9424 24.9403C33.8809 24.3829 34.0591 23.8738 34.4942 23.4979C35.0982 22.8303 36.0922 22.866 36.8975 23.0799C38.2095 23.5661 39.2292 24.5424 40.0508 25.6737C40.7424 26.62 41.288 27.6763 41.7491 28.6453C42.4668 30.3309 42.857 32.0849 42.9415 34.033C42.9415 34.0913 42.9441 34.1466 42.9473 34.2049C43.0122 35.5468 42.8985 36.8918 42.6485 38.1688C42.6063 38.3957 42.5582 38.6196 42.503 38.8367C42.4738 39.002 42.665 39.0183 42.7559 39.0799C44.2595 39.4916 45.7142 39.0861 46.8995 38.1688C47.2729 37.8771 47.6209 37.5366 47.9327 37.1541C48.7574 36.2531 49.2737 35.2092 49.7413 34.0975C50.618 31.4363 50.452 28.2923 49.5752 25.7381C49.5276 25.602 49.4795 25.4668 49.4297 25.3328C48.3808 22.5355 45.9705 19.5855 43.1485 18.2987C41.9991 18.1012 40.9531 18.6689 39.7647 18.3934C38.9367 18.147 38.1282 17.7381 37.5372 17.0477L37.5567 16.9764C38.0243 17.0347 38.463 17.1422 38.8819 17.3172C38.8981 17.1195 38.7002 16.9632 38.671 16.7655C39.1578 16.6456 39.6448 16.5391 40.1641 16.5067C39.8816 15.8941 39.1481 16.208 38.6934 15.9422C38.5278 15.9325 38.3457 15.8709 38.1963 15.9422C38.2353 16.1302 38.3522 16.296 38.3458 16.5067C38.1023 16.5681 37.8653 16.3901 37.6153 16.3739C37.4399 16.3901 37.2283 16.2794 37.1016 16.4285C36.5985 15.7835 36.4168 14.8337 35.5499 14.4481L35.5762 14.37C36.9822 14.0166 38.2909 13.2874 39.8819 13.4657C40.0539 13.5045 40.2356 13.5374 40.3946 13.6151L39.9756 13.991C40.3523 14.3476 40.7879 14.6361 41.3399 14.62L41.3692 14.5809C41.3302 14.3087 41.1741 14.0788 41.0313 13.8455C41.5508 13.9298 41.9373 14.4093 42.3399 14.7723C43.0803 16.0753 44.2819 17.3366 45.5938 18.1502C47.9189 19.5991 49.4298 22.0653 50.5372 24.3504C50.7406 24.7955 50.9244 25.2592 51.0889 25.741C51.9754 28.3308 52.2909 31.378 51.6934 34.0975C51.5668 34.6745 51.397 35.2359 51.1827 35.7772C50.9002 36.6553 50.4591 37.3846 49.8975 38.1688C49.2643 39.0537 48.481 39.8677 47.6075 40.5711C45.9546 41.7249 43.8211 42.2429 41.7168 41.9188C41.2201 42.3757 40.5609 42.3629 39.9376 42.4569H34.3223C34.2447 42.0715 34.5335 41.9157 34.5108 41.5301C34.5822 41.1348 34.699 40.6489 35.1338 40.5321C35.1468 40.5159 35.1637 40.5091 35.1573 40.493C35.2969 40.8623 35.4717 41.261 35.6827 41.6239C35.9684 41.4651 36.1248 41.1609 36.1573 40.8465C36.0988 40.4997 35.8487 40.2272 35.5889 39.9647L35.5108 39.9422C35.738 39.777 35.8259 39.495 36.0206 39.2811C36.2251 39.495 36.4688 39.8545 36.7999 39.7381C36.9103 39.6927 37.0762 39.6271 37.086 39.4715C37.0473 39.4164 37.0756 39.3227 36.9913 39.3065C36.4557 38.9692 35.9881 37.9943 35.2676 38.4862C34.5987 39.2187 34.0297 40.0231 33.8868 40.9793L33.754 42.4569C33.4228 42.4407 33.0624 42.5281 32.754 42.4569C32.848 41.757 32.6341 41.0571 32.793 40.3573C32.9748 40.2959 33.1144 40.5318 33.2833 40.6258C33.306 40.6744 33.3777 40.6744 33.4004 40.6258C33.4623 40.399 33.7863 40.2044 33.6045 39.9451C33.5168 39.7215 33.2734 39.5495 33.0948 39.3778C33.1468 39.109 33.351 38.8984 33.4971 38.6619C33.5588 38.6717 33.533 38.7168 33.5655 38.7557C33.6921 38.8886 33.8745 38.9278 34.0401 38.9051C34.1085 38.8825 34.3124 38.8981 34.212 38.7557C34.1892 38.6131 34.0137 38.4638 34.1338 38.3407C34.4163 38.2402 34.8059 38.6096 35.0137 38.2791C35.0299 38.25 35.0463 38.2144 35.0626 38.1756C34.5657 37.8774 34.0626 37.5794 33.4034 37.7576C33.0332 37.709 32.9549 38.1073 32.7081 38.2791C32.68 38.2964 32.6504 38.3111 32.6202 38.3241C32.0228 38.2205 31.3993 38.4279 30.8506 38.4344L29.8409 39.9676C29.8669 40.47 29.7792 41.1158 30.0001 41.5858C30.1947 41.8837 30.3602 42.1331 30.503 42.4569H19.7149C19.8708 42.1101 20.1798 41.7568 20.4297 41.491C20.4622 41.6012 20.6116 41.6014 20.6993 41.6629L21.4561 41.8153C21.7157 41.7181 21.9948 41.6407 22.209 41.453C21.7545 41.2099 21.2577 41.0671 20.8096 40.8143C20.8551 40.2341 21.0982 39.4559 20.6045 38.9989C20.335 38.7948 19.981 38.7879 19.6563 38.7166C19.2863 38.843 18.871 39.0149 18.6729 39.4002C18.3808 39.1022 18.0591 38.8269 17.6729 38.7166C17.6859 38.5773 17.7111 38.4282 17.7403 38.2791C17.7695 38.1365 17.8025 37.9937 17.8252 37.8543C18.4129 37.5142 19.1142 37.8937 19.7149 38.0428C19.848 38.0428 19.9653 38.1207 20.0918 38.0819C20.1308 37.9814 19.9553 37.9809 19.9551 37.8709C19.4063 37.0444 18.4385 36.9506 17.461 37.077C17.0425 37.1165 17.0422 37.9809 16.6104 37.5467C16.2891 37.4626 16.0035 37.7057 15.6661 37.7059L15.0254 37.9481C14.9573 38.0582 14.8931 38.169 14.8282 38.2791C14.5034 38.8399 14.2175 39.4137 13.9317 39.9842C13.9641 40.5028 13.7591 41.1382 14.0577 41.5887C14.2005 41.8771 14.3893 42.217 14.5938 42.4569H0.674856C0.187996 41.8054 -0.110756 40.924 0.0547392 40.075C0.171648 39.699 0.363852 39.3201 0.717825 39.077C0.701588 38.8079 0.747013 38.5578 0.837942 38.3309C0.977596 38.0036 1.21797 37.7215 1.52642 37.4881C1.96155 37.1998 2.53012 37.1054 3.08208 37.2059C3.70237 36.5547 4.6865 36.3761 5.53716 36.658C5.74165 36.7423 5.93969 36.8364 6.11822 36.9627C6.56939 36.0845 6.67979 35.067 7.04009 34.1532C7.08555 34.043 7.13169 33.9359 7.18365 33.8289C7.54409 33.0737 7.79085 32.2148 8.22271 31.4823C7.5862 29.7319 7.02688 27.8936 6.6729 26.033C6.68913 25.9262 6.75423 25.8256 6.83208 25.7381C6.90988 25.6605 6.99772 25.5924 7.07232 25.5438C7.23144 25.1678 7.3652 24.7817 7.46587 24.3895C7.28727 24.4122 7.11189 24.5684 6.91704 24.617C6.80662 24.7887 6.63433 24.9311 6.57915 25.1287C6.48174 25.0963 6.46221 24.8984 6.42974 24.7655C6.46859 24.2631 6.08258 23.6573 6.53716 23.2586L6.99517 22.8826C7.00491 22.5099 7.04995 22.1497 7.08892 21.7899H7.01079C6.76726 22.0167 6.36454 22.2048 6.29302 22.5418H6.25396L6.23833 20.9412C6.38764 20.8246 6.59194 20.7269 6.75103 20.578C6.67958 18.7887 6.80688 17.0345 7.294 15.4559C7.44345 15.0704 7.75134 14.7655 7.97857 14.4188C8.00128 13.9715 7.98502 13.5078 8.08892 13.0994C8.38119 12.9276 8.64171 12.6198 8.94048 12.4383C8.80735 12.3281 8.57643 12.3379 8.39458 12.3055C8.6544 11.5989 9.20679 11.0092 9.74908 10.4744C9.99571 10.2866 10.2291 10.0886 10.5049 9.98812C10.5926 9.97839 10.6421 10.0434 10.6973 10.0985C11.2459 10.1504 11.7426 10.3707 12.3008 10.3416C12.119 10.0499 11.8044 9.75774 11.4376 9.75765L11.5059 9.71858C12.0024 9.50804 12.3435 9.36591 12.879 9.26546C12.957 9.70618 13.4122 9.99444 13.5713 10.3963L13.8926 10.6619C13.8375 10.1336 14.0352 9.44351 13.5254 9.07405ZM0.997122 39.7381C0.94845 40.3441 0.997221 40.9113 1.03618 41.5076C1.16277 41.7052 1.38978 41.9316 1.62017 41.9481L1.65923 41.5467C1.75341 40.9892 1.45461 40.3956 1.76958 39.9256C1.99027 39.9936 2.21119 40.1074 2.39947 40.2078C2.49364 39.6892 2.36115 39.0828 1.86431 38.7684L0.997122 39.7381ZM3.58892 37.8123C3.34536 38.1592 3.07883 38.4963 2.94243 38.8885C2.63717 39.8091 2.40718 40.9408 2.7774 41.91C2.99169 41.7674 3.21213 41.6337 3.40044 41.4393C3.36146 40.6971 3.25767 39.9093 3.69927 39.2967C4.08572 39.4134 4.34513 39.7836 4.49126 40.1434C4.75431 39.816 4.84225 39.3583 4.73833 38.9207C4.75438 38.5742 4.36153 38.6519 4.16997 38.5125C4.23492 38.2208 4.22572 37.8839 4.53423 37.7186L3.58892 37.8123ZM6.91118 37.9451C6.35912 38.0003 5.86177 38.2308 5.47857 38.6619C4.99806 39.5403 4.92022 40.5357 4.88775 41.6053C4.92632 41.6735 4.88778 41.7991 4.9688 41.8153C5.08581 41.1542 5.62188 40.7264 5.91411 40.1463C6.05368 39.9518 6.04718 39.673 6.27447 39.5272C6.58285 39.5273 6.8039 39.7444 7.10259 39.7703C7.19631 39.8416 7.05342 39.9035 7.04693 39.9813C6.98518 40.5158 6.78052 40.9598 6.81939 41.5106H6.87212C7.29087 41.0698 7.57345 40.593 7.88189 40.0907L7.93365 39.6434C8.00799 39.1088 7.42386 38.7651 7.044 38.5448L7.38482 38.1102L6.91118 37.9451ZM21.9825 36.8338C21.6188 36.9213 21.2321 36.811 20.9561 37.0604C20.5469 37.0928 20.5138 37.5401 20.4131 37.8319H20.5079C20.9234 37.5727 21.5304 37.7701 21.9395 37.495C22.1668 37.375 22.1837 37.6897 22.3428 37.7772C22.7289 38.0108 22.775 38.7198 23.3204 38.5545C23.9696 38.8917 23.8074 39.6863 23.8301 40.2664L24.4376 39.8905C24.3824 39.5826 24.5572 39.2129 24.3594 38.9471C24.2069 38.6101 23.7975 38.5775 23.6026 38.3055C23.8396 37.9037 23.3044 37.712 23.1905 37.4237L23.2256 37.3846L24.0606 37.495C24.3428 37.6667 24.4469 37.9807 24.5313 38.2723C25.1839 38.3825 25.3431 39.1184 25.5704 39.5916C25.7067 39.2709 25.7593 38.9245 25.8956 38.6102C25.9021 38.3509 25.554 38.3502 25.3819 38.2303C25.3364 37.8317 25.1547 37.4558 24.8008 37.2127C24.0768 37.028 23.4371 36.6299 22.6417 36.6297L21.9825 36.8338ZM21.6573 38.3016C21.5306 38.2076 21.3646 38.3348 21.2217 38.325L20.9786 38.4217C21.2318 38.6324 21.4919 38.9957 21.8848 38.9471C22.3746 39.1742 22.1704 39.8188 22.4366 40.159L22.7188 39.9061L22.6963 39.8905L22.7354 39.8514L22.751 39.8739C22.8289 39.6373 22.7191 39.2226 22.586 38.9471C22.4042 38.8207 22.193 38.9533 22.0176 38.8367C21.9949 38.5839 21.8391 38.4572 21.6573 38.3016ZM7.42681 36.1297C7.18007 36.3436 7.01441 36.6162 7.00786 36.9403C7.18647 36.9954 7.35237 36.8468 7.53423 36.9246C8.25842 37.1937 9.01534 37.466 9.55767 38.0721L10.2042 39.7147L10.5284 38.6971L10.3145 38.1492C10.1326 37.7572 9.63886 37.7895 9.2979 37.7733C9.15832 37.6145 9.30713 37.436 9.35259 37.2869C9.51796 36.7298 8.83382 36.7587 8.55767 36.5321C8.5739 36.1952 8.16496 36.311 7.93755 36.2821L7.85943 36.1883C7.8108 36.1139 7.69397 36.114 7.62896 36.1688C7.616 36.1461 7.58369 36.1303 7.59966 36.0916L7.42681 36.1297ZM38.8204 37.5887C39.0639 38.0749 39.6 38.4444 39.6553 39.0018C39.7786 38.8528 39.8656 38.6806 39.9532 38.5155C39.9432 38.357 39.7616 38.3566 39.6934 38.2303C39.619 38.0296 39.7292 37.8481 39.7618 37.6668C39.6611 37.3751 39.4144 37.1026 39.1417 36.9276L38.8204 37.5887ZM25.9893 35.2547C26.1062 36.0716 26.6254 36.8236 26.3428 37.7215C26.5798 37.8868 26.6483 38.1623 26.8008 38.3826H26.8399C27.0184 37.6988 26.895 36.9923 26.8008 36.3084C26.869 35.6861 26.2394 35.3259 25.8692 35.0018L25.9893 35.2547ZM8.38872 34.3407C7.85953 34.2596 7.81016 34.8881 7.46294 35.1346C7.48892 35.2351 7.55005 35.3364 7.62798 35.4012C7.98194 35.3072 8.32332 35.0604 8.73247 35.2127C9.2585 35.6762 9.81059 36.1623 10.4502 36.4119L10.6778 36.3729C10.8173 36.4215 10.9762 36.4283 11.0704 36.5867C11.158 36.7973 10.9379 36.924 10.8663 37.0955C11.2202 37.3549 11.08 37.8192 11.3008 38.1336L11.8663 37.3817C11.7331 37.051 11.8761 36.4834 11.3565 36.451C11.1811 36.3667 11.0639 36.1946 11.0704 35.9969C10.7328 35.6892 10.3174 35.5562 9.97661 35.242C9.70058 35.0248 9.53469 34.6841 9.18072 34.6063C8.93729 34.4735 8.67107 34.4022 8.38872 34.3407ZM35.5733 36.3084C35.4401 36.2695 35.3194 36.1561 35.209 36.3084C34.8163 36.5742 34.7935 36.9661 34.417 37.1541C34.6345 37.2577 34.9199 37.0764 35.1309 36.95C35.329 36.9047 35.4952 37.0152 35.6446 37.119C35.706 37.242 35.6444 37.3618 35.667 37.4784C36.1412 37.6112 36.6059 37.7861 37.0215 38.0584L37.1543 37.9256C37.1867 37.5886 36.9203 37.3453 36.667 37.1541C36.5016 37.0605 36.2586 37.1184 36.1417 36.9666C36.2196 36.8435 36.2188 36.6519 36.209 36.5125C35.9496 36.5124 35.7841 36.4314 35.5733 36.3084ZM40.2071 35.5369C39.9928 35.7574 39.9603 36.0947 39.7881 36.3475L40.3526 37.119C40.5962 36.7332 40.5962 36.1655 40.502 35.702C40.45 35.6145 40.3465 35.4756 40.2071 35.5369ZM36.5733 34.7879C36.3297 34.7328 36.118 34.95 35.8711 34.95C35.764 35.057 35.6997 35.1937 35.6055 35.3104C35.5568 35.4433 35.4235 35.6628 35.67 35.7244C36.1733 35.7407 36.82 35.4816 37.2129 35.8739C37.3459 35.9776 37.281 36.1889 37.2745 36.325L37.9366 36.8719C37.9983 36.5415 38.1185 36.2435 38.1251 35.8905C38.0698 35.6376 37.9432 35.3943 37.7256 35.2323C37.2906 35.2322 37.0406 34.7235 36.5733 34.7879ZM21.9952 35.0282C21.7452 35.0282 21.4626 35.0801 21.2256 35.1903C20.8881 35.2065 20.5636 35.372 20.2422 35.4725C20.0896 35.7739 19.9718 36.1366 19.8614 36.4412H19.917C20.3878 36.0621 20.9494 35.9356 21.5079 35.7801C21.6572 35.8352 21.5634 36.0007 21.6963 36.0623C22.0341 35.923 22.4468 35.9547 22.7911 35.8348C23.21 35.851 23.5481 35.8574 23.8858 36.0389C24.1553 36.3922 24.6584 36.354 25.0059 36.5907L24.9502 36.0389C24.2163 35.1836 23.0768 35.1223 22.0215 35.1385L21.9952 35.0282ZM30.7696 32.2371C30.5162 32.5839 29.7665 32.6619 29.9581 33.2518C30.3606 33.6213 30.2178 34.1566 30.1885 34.6492C30.1241 34.9501 30.5001 34.7757 30.6202 34.9344C30.8636 35.2942 30.7244 35.8225 30.6368 36.2147C30.8511 35.8905 31.0945 35.608 31.2569 35.2547C31.2506 35.122 31.4226 35.0567 31.4161 34.8914C31.4871 34.6651 31.2211 34.7657 31.1075 34.743C31.0133 34.7203 30.9129 34.6552 30.9454 34.5321C31.1466 34.1366 30.9579 33.6664 30.8799 33.2742C30.7859 32.9501 30.9222 32.5191 30.7696 32.2371ZM8.2188 33.5858L8.31353 33.7381C8.70952 33.7121 9.06009 33.5403 9.44634 33.5467C9.70612 33.7023 10.0472 33.6961 10.3135 33.8289C10.5278 34.1206 10.7554 34.4476 11.0704 34.6453C11.7067 34.7393 12.0605 35.4265 12.2813 35.9256V35.6825C12.3754 35.3454 12.2719 34.9532 12.1485 34.6453C11.9927 34.4899 11.7623 34.3862 11.5967 34.2469C11.5643 34.1432 11.5897 34.0944 11.6221 34.0037C11.3753 33.7445 11.0149 33.6015 10.7129 33.3973C10.2972 32.7915 9.49517 32.9571 8.85552 32.7918L8.2188 33.5858ZM28.4483 32.0106C28.3054 32.3314 27.951 32.5618 27.9737 32.9539C27.9189 33.3231 28.328 33.3689 28.5001 33.5731C28.6423 33.7479 28.4053 33.8649 28.4053 34.0301C28.704 34.4158 28.8799 34.853 28.8799 35.3651C28.9968 34.8854 29.1786 34.4281 29.2403 33.9354C29.2075 33.5889 28.6588 33.6599 28.7432 33.2742C28.9023 32.8821 28.7143 32.4999 28.6104 32.1434C28.5812 32.0883 28.51 31.9784 28.4483 32.0106ZM23.0772 33.495C22.4701 32.8274 22.0766 34.0454 21.4112 33.7479C21.1774 34.004 20.8844 34.25 20.8292 34.5936L20.9786 34.6649C21.3033 34.5158 21.625 34.344 21.9659 34.2176C22.4919 34.0685 22.9012 34.6648 23.3428 34.2889C23.5084 34.1723 23.6511 34.3443 23.7745 34.4383C23.9661 34.7851 24.4051 34.7593 24.7364 34.8534C24.5708 34.406 24.3659 33.7928 23.7911 33.7215C23.5639 33.6212 23.2947 33.6276 23.0772 33.495ZM36.4239 32.9246C36.0082 33.0284 36.1178 33.5146 36.0626 33.8485C36.0138 33.9487 35.9203 34.0269 35.9268 34.1532C36.2353 34.0656 36.4335 33.7285 36.7647 33.6961C37.268 33.7027 37.7164 33.9096 38.0313 34.3407C38.2195 34.4639 38.1804 34.7879 38.4239 34.7879C38.3525 34.4023 38.4791 34.0491 38.4629 33.6571C38.135 33.106 37.3132 33.5305 37.0079 32.8856L36.4239 32.9246ZM15.8936 33.7635C15.4747 33.9191 14.9775 33.8739 14.5293 33.8026L15.1202 34.5711C15.4352 34.6716 15.8285 34.6423 16.1045 34.4608L15.8936 33.7635ZM18.1436 33.2352C17.9066 33.2449 17.6599 33.2904 17.4424 33.2742C17.4587 33.4493 17.4976 33.6213 17.5528 33.7801C17.8191 34.0848 18.1829 34.2404 18.5596 34.328C18.4979 34.2404 18.6023 34.3274 18.6153 34.2723L18.1436 33.2352ZM29.5782 28.992C29.9029 29.1897 30.2732 29.4723 30.4454 29.8192C30.7214 30.6197 31.1629 31.3398 31.4844 32.1209C31.6045 32.662 31.6984 33.1449 31.8477 33.6795C31.9029 33.8189 31.871 34.0948 32.0918 34.0721C32.1536 33.4757 32.2738 32.9015 32.2803 32.2791C32.0855 32.0198 31.825 31.9126 31.5782 31.7537V31.6991C31.6106 31.5662 31.7213 31.4077 31.8868 31.4334C31.9582 31.3556 32.1694 31.274 32.0752 31.1346C31.6664 30.7261 31.6884 30.0237 31.0391 29.8973C30.8088 29.8033 30.7533 29.5665 30.7305 29.3494C30.422 29.0869 29.9678 29.0017 29.5782 28.992ZM33.2256 31.4334C33.1574 31.2422 32.9199 31.3069 32.7706 31.3231L32.5235 31.4168C32.5397 31.488 32.5721 31.5498 32.6045 31.6209C32.9098 32.1233 33.2027 32.6422 33.417 33.1834C33.3522 32.6034 33.7447 31.8807 33.2256 31.4334ZM38.1026 31.3524C37.5733 31.1806 36.9824 31.1257 36.4239 31.2586C36.2421 31.4237 35.9822 31.4005 35.7647 31.4491C35.7485 31.5106 35.7843 31.5502 35.794 31.6053C35.8946 31.8193 36.0149 32.1627 36.2129 32.1854C36.6772 31.9845 37.3558 31.8577 37.8721 32.078C38.0474 32.1071 38.0478 32.3051 38.0088 32.4315C38.2751 32.587 38.5994 32.7139 38.8819 32.8856L38.8047 32.4119C38.7883 31.9033 38.1417 31.8578 38.1026 31.3524ZM15.9874 30.9735C15.6237 31.0771 15.3084 30.9566 14.9708 31.1219C14.7662 31.4914 14.6399 31.9098 14.2471 32.1756C14.1822 32.4414 13.89 32.6231 13.7569 32.8338C14.2535 32.6783 14.7338 32.5064 15.1915 32.2537C15.4836 31.8357 15.9222 31.4595 15.9874 30.9735ZM29.1622 30.0067L29.0518 31.0828L29.461 31.8778C29.6427 31.8519 29.7597 31.6799 29.9024 31.5535C30.0128 31.223 29.7213 31.0119 29.6368 30.743C29.5621 30.555 29.6364 30.3048 29.5001 30.1395C29.3962 30.0747 29.279 29.9743 29.1622 30.0067ZM17.0655 30.0682C17.072 30.2173 17.1106 30.3607 17.1983 30.4774C17.8121 30.6978 17.8741 31.4434 18.4424 31.7254C18.8126 31.8938 19.2382 31.686 19.5596 31.5369C19.3161 31.2614 19.0428 31.0735 18.8057 30.785C18.6403 30.7137 18.472 30.6099 18.4815 30.4061L17.0655 30.0682ZM12.8282 30.9725C12.5294 31.1281 12.2462 31.365 11.9766 31.5789C12.3923 31.647 12.8441 31.5788 13.2305 31.4588C13.7889 31.3259 14.0939 30.7139 14.2823 30.2342H13.584L12.8282 30.9725ZM11.8526 29.9354C11.7066 29.9288 11.5666 29.8644 11.4336 29.9129C11.1414 30.5546 10.5608 31.1932 9.89849 31.5174C10.4406 31.5466 10.97 31.6572 11.4083 31.3494L11.8526 29.9354ZM21.1836 29.8192C20.7584 29.9585 20.3035 30.0131 19.8458 30.0682C20.6316 30.6419 21.4041 31.3102 22.5049 31.0672C22.5861 31.0121 22.7192 31.0183 22.7354 30.9178C22.4107 30.7137 22.0666 30.555 21.7354 30.367L21.3585 29.8192H21.1836ZM38.0831 29.6961C37.479 29.5535 36.7515 29.1776 36.1377 29.5633C35.9169 29.832 35.5243 29.7514 35.2256 29.868C35.2419 30.1369 35.2743 30.3965 35.3458 30.6395C35.5114 30.8142 35.7843 30.7819 36.0245 30.8143L36.7061 30.5448C36.7154 30.4219 36.5013 30.3861 36.5499 30.2469C36.7382 30.033 36.9983 30.185 37.2354 30.0975C37.5665 30.0489 37.9043 29.722 38.2354 29.9647C38.2257 30.0035 38.2486 30.0586 38.2198 30.0975C38.1159 30.3406 38.2879 30.4898 38.4795 30.5838C38.8659 30.6552 39.226 31.0081 39.6124 30.8494C39.5734 30.5287 39.4862 30.2334 39.4083 29.9256C39.0869 29.8705 38.8562 29.6023 38.5577 29.492C38.4245 29.6184 38.2487 29.7123 38.0831 29.6961ZM10.6915 28.8045C10.4414 28.6554 10.1098 28.7593 9.86626 28.8436C9.77858 29.3524 9.64522 29.8581 9.63872 30.409L9.99322 30.0457C10.3471 29.6828 10.6395 29.2679 10.6915 28.8045ZM28.042 28.6873C27.9901 28.9044 27.9254 29.1186 27.9512 29.368C27.9123 29.6986 28.1302 29.9742 28.3672 30.1395C28.4549 29.9452 28.5942 29.7764 28.6104 29.5594C28.5389 29.2224 28.3505 28.9142 28.042 28.6873ZM23.0342 28.535C22.6641 28.6063 22.2483 28.6005 21.9659 28.8436C22.2224 29.2747 22.7295 29.5434 23.129 29.8416C23.4634 29.9907 23.8952 30.0298 24.2491 29.952C23.9081 29.6765 23.6029 29.3617 23.3204 29.0311C23.2101 28.8755 23.1836 28.6776 23.0342 28.535ZM30.6885 27.6737C31.3931 28.3835 31.9036 29.0933 32.6602 29.7772C32.6764 29.4692 32.6374 29.1867 32.6211 28.8885C32.5107 28.6746 32.3053 28.519 32.1299 28.3602C31.5717 28.3047 31.2794 27.557 30.6885 27.6737ZM16.3897 27.4852C16.0749 27.848 15.8933 28.0651 15.5137 28.2401L15.7403 29.2742C16.2924 28.8302 16.4059 28.1756 16.3897 27.4852ZM37.3458 27.4334C36.8653 27.5825 36.3687 27.7476 35.8331 27.6991C35.5182 27.8189 35.2972 28.1101 34.9434 28.078C34.9272 28.3371 34.8875 28.6519 34.9815 28.8885C34.9815 28.8627 34.9823 28.8403 35.0049 28.8338C35.076 28.8955 34.9985 29.0478 35.1153 29.077C35.3197 28.9733 35.5111 28.8338 35.6993 28.701C36.2254 28.701 36.541 28.1883 37.0606 28.1883C37.9276 28.3471 38.7877 28.5196 39.5411 28.9442C39.4859 28.4353 39.0448 27.968 38.5967 27.741C38.3435 27.6536 38.1487 27.7869 37.9668 27.9295C37.4408 28.2601 37.716 27.4496 37.3458 27.4334ZM18.0108 27.242C17.777 27.524 17.5327 27.7055 17.3086 27.994C17.208 28.5772 18.0423 28.717 18.3868 28.9373C18.166 28.4285 18.0757 27.806 18.0108 27.242ZM13.5001 27.2967C13.5163 27.9158 14.0005 28.4449 14.4747 28.8436C14.5234 28.4514 14.3571 27.9942 14.3116 27.5955C14.0745 27.4368 13.7435 27.4523 13.5001 27.2967ZM19.4688 26.2215C19.1928 26.8892 18.8617 27.6827 19.3487 28.4022C19.6344 28.7749 20.2541 28.6491 20.6016 28.5389C20.436 28.2537 19.8999 28.0877 19.8057 27.783C19.7538 27.2421 19.644 26.7139 19.4688 26.2215ZM8.71001 27.242C8.53467 27.4138 8.26785 27.5888 8.20611 27.8221C8.27755 28.0652 8.36247 28.3733 8.41118 28.6326C8.62876 28.1465 9.06383 27.9261 9.45025 27.5242C9.22949 27.3752 8.95351 27.304 8.71001 27.2586V27.242ZM25.0284 27.7674C24.7686 27.3688 24.4309 27.871 24.0997 27.8387C24.1063 27.9326 24.2007 28.0037 24.2364 28.0653C24.7787 28.3894 25.4671 28.7038 26.1944 28.5936C26.2723 28.5549 26.4056 28.5614 26.4219 28.4676C25.9738 28.3088 25.5025 27.8614 25.0284 27.7674ZM9.92095 25.411C9.8853 25.7868 9.98624 26.1496 10.0577 26.5028C10.4116 27.0214 11.0025 27.6021 11.6065 27.7674C11.5383 27.1062 10.9701 26.6517 10.6778 26.0877L10.6612 25.8973C10.4339 25.6801 10.158 25.5277 9.92095 25.411ZM11.8926 25.7869C12.0095 26.4026 12.2722 26.9602 12.626 27.4852L12.7178 26.3153L11.8926 25.7869ZM20.1153 25.3719C20.2419 25.8419 20.2257 26.3701 20.4952 26.785C20.8004 27.1868 21.2579 27.495 21.7774 27.3914C21.5112 27.1322 21.203 26.8565 21.1866 26.4871C21.2645 25.7871 20.4953 25.7315 20.1153 25.3719ZM36.3292 26.0594C35.7933 25.745 35.433 26.2731 35.0206 26.5291C34.9102 26.7431 34.8584 27.0574 34.9688 27.2713C35.1636 27.213 35.3686 27.1578 35.5342 27.0184C36.0636 26.539 36.8268 26.8598 37.4405 26.8534C37.3236 26.6394 37.1572 26.4284 37.0079 26.2469C36.7871 26.1594 36.5824 26.0594 36.3292 26.0594ZM26.0059 26.9598C26.4151 27.2742 27.0679 27.3039 27.542 27.1483C27.2433 26.983 26.9119 26.8013 26.6651 26.5809L26.0059 26.9598ZM23.044 25.5985C22.8233 25.6698 22.59 25.8678 22.3985 26.033C22.7621 26.48 23.3201 26.2992 23.8331 26.3153V26.2596L23.044 25.5985ZM17.4971 23.2977C16.1593 22.8666 14.4416 22.7818 13.1524 23.4461C13.0647 23.9809 13.1748 24.5681 13.5157 24.9959L13.9874 24.5389C14.0293 24.539 14.0585 24.5489 14.0811 24.578L14.042 25.45C14.2725 25.6638 14.5518 25.7316 14.8536 25.7479C14.8763 25.5147 15.0582 25.3494 15.1622 25.1453C15.2466 24.98 15.1919 24.7366 15.3672 24.62L15.4219 24.6717C15.4739 24.9343 15.4616 25.2231 15.5948 25.45C15.611 25.5763 15.6336 25.7316 15.6465 25.8416C15.9939 25.8578 16.312 25.7639 16.5782 25.6375C16.562 25.3394 16.6665 25.0963 16.712 24.8241C16.783 24.7268 16.6244 24.5549 16.8223 24.5614C16.9327 24.7979 17.1269 25.0411 17.2374 25.2938C17.6952 24.8303 17.887 24.2276 17.9942 23.5955C17.861 23.4173 17.6562 23.4176 17.4971 23.2977ZM36.0469 24.2537C35.8261 24.0657 35.4784 24.1985 35.251 24.2147C35.0303 24.3703 34.8484 24.5679 34.7217 24.7948C34.7152 24.999 34.5661 25.2262 34.6993 25.4012C34.8909 25.1873 35.2028 25.1964 35.4561 25.1024C36.1573 25.0377 36.8261 25.258 37.4786 25.4168C37.3132 25.1545 37.2031 24.8661 37.0215 24.6297C36.6611 24.5357 36.1088 24.7883 36.0469 24.2537ZM24.7784 24.3739C24.4699 24.1308 24.138 24.3439 23.8165 24.4119C23.9333 24.5771 23.9664 24.7912 24.0831 24.9403C24.2973 25.0796 24.6124 25.0577 24.8721 25.035C25.1091 24.9799 25.2588 25.2357 25.4795 25.0867C25.2036 24.915 25.038 24.6007 24.7784 24.3739ZM11.7725 11.3621C11.2692 11.1353 10.8692 11.4983 10.4893 11.7381C10.3237 11.8094 10.1357 11.8327 9.97661 11.9266C9.69414 12.3673 9.42702 12.8142 9.24517 13.3035C9.30038 13.7022 9.4732 14.056 9.67779 14.3963C9.85965 14.9052 10.4276 15.3073 10.9083 15.5116C10.6777 16.2895 10.6777 17.2132 10.9083 18.0008C10.9075 18.0013 10.8968 18.0094 10.8956 18.0076C10.8944 18.0116 10.8698 18.0325 10.8692 18.033C10.7945 18.0331 10.7131 18.0465 10.6514 18.0076H10.6417C10.7521 18.7595 11.1064 19.4174 11.6778 19.9813C11.8856 20.0526 11.8376 20.2954 11.9219 20.451C11.9771 20.5223 11.9866 20.6716 11.9639 20.7332C10.7331 20.6943 9.63833 21.0029 8.65435 21.5604C8.40157 21.6869 8.51199 22.03 8.48931 22.2762C9.18095 21.8193 9.93116 21.4819 10.7559 21.3328C11.1098 21.3101 11.5127 21.2232 11.8536 21.3172L11.8887 21.994C10.9535 22.4801 9.93104 22.7627 9.12896 23.5633C9.14191 23.8064 9.0966 24.0887 9.16802 24.2928L9.88579 23.7117C10.5773 23.1868 11.3014 22.7397 12.0967 22.4481C12.311 22.6976 12.5288 22.9663 12.8145 23.1219C13.2919 22.8172 13.8152 22.5874 14.3672 22.4481C14.6562 22.2766 15.1231 22.4316 15.3116 22.0887L15.4454 21.3719C15.4227 21.3557 15.4061 21.3233 15.3672 21.3328C14.997 21.1189 14.7498 20.7493 14.7823 20.3182C14.6558 20.3797 14.5164 20.422 14.3672 20.4285C14.2406 20.3961 14.1204 20.3636 14.0684 20.2371C14.0586 20.0815 13.9807 19.845 14.1397 19.7284C14.6495 19.4141 15.3119 19.3975 15.9581 19.4461C16.4354 19.5109 17.1303 19.4854 17.296 20.0526C17.2732 20.2179 17.2897 20.3997 17.1241 20.5067C16.9487 20.6006 16.7539 20.4999 16.5948 20.4285C16.4714 20.8142 16.257 21.2454 15.8252 21.3719L15.877 21.826C15.9321 22.0302 15.9489 22.367 16.2735 22.2957C17.0202 22.4805 17.6824 22.8633 18.335 23.2782C18.5558 23.061 18.7286 22.8078 18.8877 22.5809C20.0534 22.9732 21.0604 23.8448 22.0215 24.6551L22.0606 23.994C21.1481 23.1836 20.1307 22.6132 19.0752 22.1659C19.1142 21.9521 19.1634 21.7481 19.17 21.5213C20.4235 21.5926 21.6122 21.9748 22.6417 22.5809L22.628 22.0135C21.5402 21.4334 20.3516 21.048 19.0528 21.035C19.0042 20.9638 18.9885 20.8602 18.9981 20.7889C19.6279 20.6883 20.0762 20.0367 20.2256 19.4696C20.5503 19.1001 21.0145 18.7011 20.9043 18.1502C20.9173 18.105 20.9331 18.0561 20.9493 18.0076C20.9915 17.8748 21.0269 17.7288 20.9815 17.6024C20.8322 17.7964 20.6055 17.8457 20.4141 17.8846C20.7453 17.2818 20.9042 16.4386 20.6446 15.7547C20.8166 15.6932 21.0045 15.6601 21.17 15.5662L21.1543 15.5506L21.586 15.1746C22.1608 14.7792 21.94 14.0329 22.1543 13.4754C21.8719 13.0379 21.7842 12.5031 21.3751 12.1336L21.3975 12.118C21.076 11.7096 20.4915 11.7578 20.0499 11.5535C19.4687 11.3559 19.0205 11.7575 18.6016 12.0233C18.4198 12.0557 18.5299 12.2895 18.335 12.283C18.2246 12.5714 18.0887 12.8858 18.0108 13.2098C17.2315 13.0996 16.3869 13.1873 15.7667 13.6248C15.4355 13.3818 15.0329 13.3365 14.6465 13.2264C14.3641 13.1681 14.0425 13.2713 13.8379 13.116C13.5392 12.779 13.4738 12.1634 12.961 12.0789C12.7791 12.0141 12.7432 11.8194 12.7432 11.6444C12.4023 11.5893 12.1036 11.4335 11.7725 11.3621ZM23.7354 21.1678C23.6737 21.4595 23.7126 21.8195 23.7061 22.1112C24.0113 22.4482 24.3134 22.9888 24.8555 22.827C24.8165 22.597 24.6903 22.409 24.6124 22.2049C24.4695 22.0396 24.4203 21.5699 24.1377 21.7352C23.9268 21.5926 23.8717 21.3558 23.7354 21.1678ZM8.26177 17.4696C8.07347 17.8293 7.91349 18.1919 7.90044 18.6229L8.35552 20.036C8.34592 19.2355 8.71958 18.5675 8.64165 17.7508L8.97857 17.2489L8.26177 17.4696ZM22.0762 19.6219L22.7227 19.4178L22.794 19.0575C22.9758 18.5291 22.5891 18.1367 22.3975 17.7186L22.0762 19.6219ZM41.6387 15.3748C41.2588 15.3975 40.8889 15.4308 40.5577 15.5799C40.9764 15.6189 41.2752 15.9879 41.5577 16.2957C41.9116 16.3476 42.1815 16.6009 42.3926 16.8602L42.2588 16.4451C42.1647 16.027 41.905 15.7055 41.6387 15.3748ZM8.83013 14.8924C8.56718 15.0479 8.42717 15.3165 8.22271 15.5272L8.20611 16.1727L8.83013 15.8094V14.8924ZM38.71 14.3153C38.2684 14.4093 37.9137 14.7237 37.4786 14.8436C37.6831 14.9441 37.8815 15.0383 38.1251 15.0545C38.2907 14.967 38.5054 14.9057 38.71 14.9608C38.9989 15.1483 39.3559 14.9213 39.6934 14.9373C39.3948 14.6556 39.054 14.4805 38.71 14.3153Z" fill="#3A2F2A" fill-opacity="0.8"/>
<path fill-rule="evenodd" clip-rule="evenodd" d="M11.168 12.1339L11.3953 12.1598C12.009 12.4645 13.0028 12.6233 13.058 13.5082C12.4345 13.7546 11.8369 14.0819 11.3401 14.5844C10.9634 14.2019 10.2002 14.4126 10.0703 13.7384C10.1905 13.0998 10.4178 12.2992 11.168 12.1339Z" fill="#3A2F2A" fill-opacity="0.8"/>
<path fill-rule="evenodd" clip-rule="evenodd" d="M11.7588 16.1176C12.4765 16.056 13.1682 16.1565 13.9086 16.0949C14.0905 16.1727 14.2789 16.3283 14.3665 16.5098C14.3406 17.3591 14.0808 18.1694 14.0418 19.0414C13.7203 19.171 13.4053 19.4401 13.3241 19.7934C13.0351 19.8809 12.772 20.0527 12.4895 20.1856C12.3661 19.9198 12.3888 19.5178 12.6097 19.2974C12.9149 18.8663 13.7138 18.9668 13.6489 18.2829C13.8534 17.9555 13.6586 17.5309 13.6651 17.184C13.5839 16.9247 13.506 17.2715 13.3793 17.2618C13.1293 17.3169 12.8695 17.3331 12.6486 17.2067C12.483 17.0349 12.2784 16.8923 12.2297 16.6557C12.0089 16.5487 11.7523 16.3737 11.6387 16.1468L11.7588 16.1176Z" fill="#3A2F2A" fill-opacity="0.8"/>
<path fill-rule="evenodd" clip-rule="evenodd" d="M12.6264 21.239C12.9609 21.2877 13.3181 21.1353 13.6104 21.3006C13.5487 21.4141 13.3798 21.4595 13.2467 21.4919L12.7174 21.735C12.5225 21.6864 12.6329 21.3719 12.6264 21.239Z" fill="#3A2F2A" fill-opacity="0.8"/>
<path fill-rule="evenodd" clip-rule="evenodd" d="M14.0031 14.6784C14.3408 14.5682 14.7046 14.3413 15.065 14.4515C14.8052 14.7108 14.6006 15.0479 14.4058 15.3623L13.3276 15.3396C13.4445 15.0544 13.7433 14.821 14.0031 14.6784Z" fill="#3A2F2A" fill-opacity="0.8"/>
<path fill-rule="evenodd" clip-rule="evenodd" d="M17.1628 14.4223C17.611 14.3413 17.585 14.9247 17.9942 14.9442C18.0689 15.0382 18.1696 15.1257 18.1306 15.2683C17.8935 15.3623 17.546 15.3169 17.2797 15.3785C16.9225 15.1808 17.1531 14.5682 16.5945 14.6071C16.5621 14.5617 16.5004 14.4677 16.5783 14.4353C16.7504 14.3737 16.981 14.3964 17.1628 14.4223Z" fill="#3A2F2A" fill-opacity="0.8"/>
<path fill-rule="evenodd" clip-rule="evenodd" d="M16.8771 16.526C17.0752 16.2505 17.3739 16.2278 17.6565 16.1727L19.6991 16.2083C19.7835 16.2894 19.6179 16.3607 19.6179 16.4547C19.4945 16.5714 19.3127 16.6038 19.2022 16.714C18.9327 16.7205 18.9587 17.0349 18.7703 17.171C18.4781 17.4595 18.0494 17.3266 17.7117 17.2812C17.5948 17.1937 17.4616 17.0738 17.4032 16.9409L17.309 17.0349C17.4291 17.4757 17.3967 17.9619 17.4843 18.4125L17.9747 18.7334C17.9812 19.4562 18.832 19.2585 19.2022 19.6604C19.1146 19.9197 18.9424 20.1402 18.7541 20.3606C18.4553 20.0689 18.1143 19.8809 17.7539 19.7544C17.7214 19.3331 17.257 19.0802 16.9972 18.8663C16.9258 18.0981 16.9095 17.3104 16.7861 16.5649L16.8771 16.526Z" fill="#3A2F2A" fill-opacity="0.8"/>
<path fill-rule="evenodd" clip-rule="evenodd" d="M17.6176 21.3719H18.5659L18.4457 21.8678L17.4975 21.4659C17.478 21.3881 17.5624 21.3654 17.6176 21.3719Z" fill="#3A2F2A" fill-opacity="0.8"/>
<path fill-rule="evenodd" clip-rule="evenodd" d="M19.3187 12.471L20.0202 12.2538C20.4228 12.4418 20.7995 12.6752 21.1698 12.9443C21.462 13.4759 21.4133 14.1987 21.2802 14.7984C21.0658 15.0317 20.6015 14.7984 20.4293 15.1744H20.3969C20.1371 14.4353 19.3966 13.7741 18.7114 13.4402C18.8218 13.061 18.942 12.6914 19.3187 12.471Z" fill="#3A2F2A" fill-opacity="0.8"/>
</svg>
