<svg width="52" height="52" viewBox="0 0 52 52" fill="none" xmlns="http://www.w3.org/2000/svg">
<path fill-rule="evenodd" clip-rule="evenodd" d="M11.7654 49.157H10.5686V45.3544L8.86411 49.157L7.15912 45.3544V49.157H6V43.4695H7.50786L8.87904 46.5406L10.2582 43.4695H11.7655L11.7654 49.157ZM14.25 49.157H17.8716V48.0685H15.5379V46.8009H17.3786V45.7443H15.5379V44.5586H17.6743L17.9017 43.4695H14.25L14.25 49.157ZM24.1898 49.157H22.788L21.6214 46.9146H21.2806V49.157H20.0155V43.4695H22.0533C23.3561 43.4695 23.9316 44.1522 23.9316 45.1843C23.9316 45.9881 23.5834 46.5327 22.8637 46.7441L24.1898 49.157ZM22.6364 45.2407C22.6364 44.7695 22.3565 44.5177 21.826 44.5177H21.2806V45.9727H21.826C22.3565 45.9727 22.6364 45.7284 22.6364 45.2407ZM30.2881 49.157H28.8862L27.7197 46.9146H27.3789V49.157H26.1137V43.4695H28.1516C29.4548 43.4695 30.0305 44.1522 30.0305 45.1843C30.0305 45.9881 29.6823 46.5327 28.9625 46.7441L30.2881 49.157ZM28.7351 45.2407C28.7351 44.7695 28.4548 44.5177 27.9248 44.5177H27.3789V45.9727H27.9248C28.4548 45.9727 28.7351 45.7284 28.7351 45.2407ZM32.2125 49.157H33.5V43.4695H32.2125V49.157ZM36.0154 49.157H39.5834V48.0202H37.3039V43.4695H36.0154V49.157ZM41.4325 49.157H45V48.0202H42.7199V43.4695H41.4325V49.157ZM18.1239 16.0288C17.46 15.4735 16.0102 15.4383 15.2822 16.0211L15.5111 16.4801C16.2931 16.3541 17.09 16.3537 17.8721 16.4787L18.1239 16.0288Z" fill="#3A2F2A" fill-opacity="0.8"/>
<path fill-rule="evenodd" clip-rule="evenodd" d="M40.5743 27.9672C39.6281 26.6211 39.3091 25.3178 37.9631 23.863C39.8769 23.5632 41.1695 22.7112 41.812 21.3131C42.4011 20.0342 42.3812 18.6636 41.7586 17.4552C40.3958 14.8073 36.6093 13.5942 33.6731 13.0422C30.4164 12.4288 29.0793 11.6395 28.5744 10.0242C28.5545 9.94616 28.379 9.14613 28.8506 8.52051C29.6823 7.41456 32.0814 7.5415 32.2676 7.5354C33.0077 7.57364 33.5022 8.03408 34.2286 8.76527C35.0634 9.60505 36.1027 10.6498 37.9003 10.6514C38.9976 10.6514 40.2948 10.223 41.6378 8.82647C42.7488 7.66848 43.6157 5.89865 43.6706 5.79159H32.0048C29.8224 5.79159 28.2902 6.36215 27.4477 7.48801C26.4328 8.84482 26.883 10.4449 26.9029 10.5122L26.906 10.5244C27.727 13.1845 30.0757 14.1405 33.3522 14.757C36.963 15.4362 39.4004 16.6782 40.2121 18.2554C40.5936 18.9973 40.6012 19.7805 40.2319 20.5836C39.6428 21.8624 38.0434 22.3947 35.3422 22.2112C32.9462 22.0475 29.529 20.9446 27.121 18.3394C26.01 17.1386 24.7479 15.2832 23.4109 12.8968C23.3651 12.8096 23.066 12.2727 22.7013 11.5905L24.5204 11.5568C24.4303 10.9388 24.0198 10.1709 23.5788 9.63707C24.2223 8.84911 24.5768 7.86373 24.5829 6.84542C24.4761 2.75199 20.3221 2.80715 18.9103 2.85295C19.8778 4.37649 20.293 5.78687 19.8321 6.08668C19.3757 6.38497 18.312 5.62777 16.557 5.62777C14.8035 5.62777 13.7382 6.38494 13.2819 6.08668C12.821 5.78687 13.2361 4.37649 14.2037 2.85447C12.7935 2.80705 8.63938 2.75199 8.53277 6.84556C8.53277 7.76031 8.8502 8.74237 9.62396 9.69993C9.08221 10.1589 8.65488 10.9925 8.68845 11.5569L10.2375 11.7375C9.44081 14.0886 8.39086 17.4094 7.80941 19.5954H7.81078C7.17592 22.0322 7.64443 24.3067 9.16752 26.2679C8.63795 27.201 8.59828 28.385 8.80887 29.3181C10.1137 35.0928 9.45595 35.7214 8.94164 38.6061H14.0861C14.1654 38.0096 14.6981 33.994 14.7942 31.585C15.8506 32.5473 16.9262 33.4883 18.0204 34.4072V34.4058C19.6045 35.8131 21.1978 35.7321 21.671 35.7336C22.8263 35.7336 24.1693 35.5776 25.1904 35.4384L25.4514 31.8376L26.4296 31.758L26.538 33.0124L28.1587 32.8716C27.4277 35.6694 25.926 37.5434 25.2957 38.6064H30.9119C31.1332 38.2393 32.2992 36.2752 33.0088 34.513C33.5807 34.7505 34.2068 34.8256 34.8184 34.7301C35.43 34.6346 36.0036 34.3721 36.4763 33.9715C36.2092 35.9447 35.0631 38.025 34.8098 38.6065H41.157C41.1112 37.6321 40.8045 36.3364 43.0311 29.8569C41.7705 29.2894 40.9345 28.4797 40.5743 27.9672ZM40.4736 7.53543C39.8402 8.21462 38.9398 8.90754 37.9005 8.90754C36.8261 8.90754 36.2248 8.3018 35.4633 7.53543H40.4736ZM12.5593 36.8594H11.0637C11.9687 32.7798 10.0488 28.7766 10.4853 27.6584C10.9034 28.0317 12.7699 29.7434 13.0721 30.0203C13.1606 31.2976 12.8462 34.5404 12.5593 36.8611V36.8594ZM29.9143 36.8594H28.4248C28.9666 35.8575 29.6015 34.4471 29.9906 32.7125L30.9567 32.6284C31.1215 32.9374 31.3199 33.2235 31.5488 33.4789C31.0605 34.7179 30.3783 36.0364 29.9143 36.8594ZM33.9799 32.9894C33.1161 32.8211 32.5637 32.0808 32.3622 31.5163C32.8475 31.657 35.0162 32.0517 35.6297 32.3316C35.4486 32.5906 35.196 32.7908 34.9029 32.9076C34.6098 33.0245 34.2889 33.0529 33.9799 32.9894ZM39.4144 36.8594H37.4915C37.928 35.6938 38.4331 33.9683 38.1752 32.7552C37.7814 30.8951 35.7884 30.476 34.0304 30.1058C33.0216 29.8947 31.9121 29.6622 31.1948 29.2324C29.9785 28.5042 29.9159 26.7329 30.3402 25.6926H28.5196C27.8954 28.3848 29.2338 30.202 30.4486 30.8109L30.4593 30.918L28.1228 31.1245L28.0175 29.8839L23.6954 30.2205C23.8725 29.5444 23.9808 28.8315 23.9839 28.1325H22.2441C22.2334 29.7646 21.4765 31.5237 20.8447 32.212L23.697 31.9795L23.5596 33.8794C22.5753 33.9773 21.3254 34.0446 20.7882 33.9283C19.6864 33.6882 18.7966 32.9646 18.409 31.9963C17.9298 30.7986 18.206 29.3072 19.2026 27.6628L17.881 26.488C16.8066 28.1646 16.4464 29.5811 16.4388 30.7223C15.369 29.7617 12.0177 26.6886 11.5889 26.3076C9.57132 24.5103 8.87084 22.3887 9.5057 20.0022H9.50431C10.1529 17.57 11.4211 13.6159 12.2055 11.3657C12.5932 10.2184 12.6435 10.1144 12.7794 9.71974C11.3723 9.4597 10.2887 8.10898 10.2734 6.84397C10.2612 5.75332 11.0838 4.72842 11.9125 4.63204C11.5523 5.28673 11.6088 6.36517 11.8133 6.79501C12.0056 7.20803 12.5367 7.85662 13.4187 7.85662C14.0109 7.85662 15.0654 7.37324 16.558 7.37324C18.0506 7.37324 19.1066 7.85662 19.6972 7.85662C20.5793 7.85662 21.1104 7.20803 21.3027 6.79501C21.5087 6.36517 21.5637 5.28677 21.2035 4.63204C22.0429 4.75288 22.8426 5.77473 22.8426 6.84549C22.8426 7.8245 22.1634 9.2899 20.6632 9.34194C20.4114 9.35266 20.1276 9.32511 19.9139 9.32664C17.4187 9.37253 17.2844 11.3718 17.7499 13.3097C17.8826 13.865 17.6858 14.3285 17.6858 14.3285H14.4504L15.0075 15.4482C15.9369 15.2387 17.5439 15.2295 18.4519 15.4559V15.4545L19.1036 14.3286L18.838 13.4108L20.4664 11.0627C20.9487 12.0295 21.8109 13.5989 21.8613 13.6877C22.9998 15.7971 23.4988 17.7304 23.3432 19.4391C23.2916 20.0411 23.1453 20.6312 22.9097 21.1875L24.2634 22.3898C24.9181 21.2013 25.147 19.7282 25.1074 18.6652C25.3531 18.9711 25.5988 19.2587 25.846 19.5264C28.3107 22.1926 31.6941 23.4821 34.3344 23.8554H34.333C36.6756 24.2348 37.5332 26.104 38.1545 27.2819C39.0809 29.0349 39.5326 29.6253 40.9199 30.6624C40.7459 31.2039 39.6349 34.6397 39.4151 36.8607L39.4144 36.8594ZM19.8158 10.1988C19.8524 11.0845 19.3702 11.7331 18.3904 11.7744C18.3538 10.8917 18.8345 10.2386 19.8158 10.1988Z" fill="#3A2F2A" fill-opacity="0.8"/>
<path fill-rule="evenodd" clip-rule="evenodd" d="M15.2033 11.9009C14.0679 11.8504 13.5093 11.0978 13.5521 10.0744C14.6875 10.1203 15.2461 10.876 15.2033 11.8993" fill="#3A2F2A" fill-opacity="0.8"/>
</svg>
