<svg width="96" height="96" viewBox="0 0 96 96" fill="none" xmlns="http://www.w3.org/2000/svg">
<g clip-path="url(#clip0_153_541)">
<path d="M80.7292 0.142639C72.4555 0.142639 65.4771 7.10078 65.4771 15.3861C65.4771 23.6651 72.4555 30.6233 80.7292 30.6233C89.0029 30.6233 95.9814 23.6651 95.9814 15.3861C95.9814 7.10078 89.0029 0.142639 80.7292 0.142639ZM80.7292 4.06202C86.8338 4.06202 91.6183 8.84962 91.6183 14.9581C91.6183 21.0481 86.8338 25.8357 80.7292 25.8357C74.6246 25.8357 69.8401 21.0481 69.8401 14.9581C69.8401 8.84962 74.6246 4.06202 80.7292 4.06202Z" fill="#3A2F2A" fill-opacity="0.65"/>
<path fill-rule="evenodd" clip-rule="evenodd" d="M87.9928 61.4078C80.5867 65.445 71.3462 62.7039 67.3177 55.2992C63.2831 47.8884 66.0163 38.6419 73.4223 34.6357C80.8222 30.5985 90.0628 33.3333 94.0974 40.7442C98.1258 48.1488 95.3926 57.3767 87.9928 61.4078Z" fill="#3A2F2A" fill-opacity="0.65"/>
<path fill-rule="evenodd" clip-rule="evenodd" d="M87.9681 94.0589C80.562 98.0899 71.3215 95.3551 67.2931 87.9442C63.2585 80.5644 65.9978 71.3179 73.3976 67.2806C80.7975 63.2744 90.0443 65.9845 94.0727 73.3892C98.1073 80.8 95.3679 90.0465 87.9681 94.0589Z" fill="#3A2F2A" fill-opacity="0.65"/>
<path d="M48.0559 32.8186C39.7822 32.8186 32.8037 39.7767 32.8037 48.0558C32.8037 56.3349 39.7822 63.293 48.0559 63.293C56.3296 63.293 63.308 56.3349 63.308 48.0558C63.308 39.7767 56.3296 32.8186 48.0559 32.8186ZM48.0559 37.1783C51.0989 37.1783 53.7142 38.4806 55.9082 40.2233C58.0711 42.3938 58.945 45.0109 58.945 48.0558C58.945 54.1395 54.1605 58.9333 48.0559 58.9333C45.0129 58.9333 42.3975 57.631 40.2284 55.8884C38.0344 53.7178 37.1606 51.1008 37.1606 48.0558C36.7392 41.9721 41.9513 37.1783 48.0559 37.1783Z" fill="#3A2F2A" fill-opacity="0.65"/>
<path fill-rule="evenodd" clip-rule="evenodd" d="M29.2151 54.1209C25.825 61.8108 16.82 65.2775 9.11025 61.8791C1.4005 58.462 -2.06393 49.4698 1.35092 41.755C4.77197 34.0651 13.7522 30.5736 21.462 33.9969C29.1717 37.4139 32.6361 46.4062 29.2151 54.1209Z" fill="#3A2F2A" fill-opacity="0.65"/>
<path fill-rule="evenodd" clip-rule="evenodd" d="M61.9632 21.4698C58.5483 29.1597 49.5619 32.6264 41.8521 29.2279C34.1424 25.8109 30.678 16.8248 34.0742 9.11009C37.4953 1.42017 46.5003 -2.0527 54.21 1.34575C61.895 4.76901 65.3842 13.7551 61.9632 21.4698Z" fill="#3A2F2A" fill-opacity="0.65"/>
<path fill-rule="evenodd" clip-rule="evenodd" d="M29.2647 21.4201C25.8498 29.1349 16.8634 32.6015 9.15365 29.1845C1.4439 25.7612 -2.02053 16.7752 1.40052 9.08526C4.79678 1.37053 13.8018 -2.09614 21.5116 1.32092C29.2151 4.71937 32.6857 13.7116 29.2647 21.4201Z" fill="#3A2F2A" fill-opacity="0.65"/>
<path fill-rule="evenodd" clip-rule="evenodd" d="M61.8949 86.8403C58.4739 94.5303 49.4689 97.9969 41.7591 94.5985C34.0494 91.1814 30.5849 82.1892 34.006 74.4744C37.4208 66.7845 46.4073 63.3179 54.1108 66.7163C61.8206 70.1334 65.285 79.1256 61.8949 86.8403Z" fill="#3A2F2A" fill-opacity="0.65"/>
<path d="M15.3825 65.4636C7.10257 65.4636 0.148926 72.4465 0.148926 80.707C0.148926 88.986 7.10257 95.9442 15.3825 95.9442C23.6562 95.9442 30.6347 88.986 30.6347 80.707C30.6347 72.4465 23.6562 65.4636 15.3825 65.4636ZM15.3825 69.8295C18.4441 69.8295 21.0594 71.1256 23.2286 72.8744C25.3977 75.045 26.2716 77.662 26.2716 80.707C26.2716 86.8155 21.4871 91.6031 15.3825 91.6031C9.2965 91.6031 4.512 86.8155 4.512 80.707C4.06578 74.6171 9.2965 69.8295 15.3825 69.8295Z" fill="#3A2F2A" fill-opacity="0.65"/>
</g>
<defs>
<clipPath id="clip0_153_541">
<rect width="96" height="96" fill="white"/>
</clipPath>
</defs>
</svg>
