<svg width="52" height="52" viewBox="0 0 52 52" fill="none" xmlns="http://www.w3.org/2000/svg">
<path d="M0 44.1527V31.4427H9.4698C9.4698 32.3842 9.75248 33.1609 10.3178 33.7729C10.9303 34.3849 11.637 34.8791 12.438 35.2557C13.2389 35.5852 14.0634 35.8206 14.9114 35.9618C15.7594 36.1031 16.4426 36.1737 16.9608 36.1737C17.6675 36.1737 18.3507 36.0324 19.0103 35.75C19.717 35.4205 20.0703 34.7614 20.0703 33.7729C20.0703 33.1139 19.5756 32.5961 18.5863 32.2195C17.644 31.7958 16.419 31.3957 14.9114 31.0191C13.4509 30.6425 11.8726 30.1953 10.1765 29.6775C8.48042 29.1597 6.87856 28.4536 5.37093 27.5592C3.91042 26.6177 2.68547 25.4173 1.69608 23.958C0.753815 22.4517 0.282681 20.5452 0.282681 18.2385C0.282681 16.4497 0.683145 14.9198 1.48407 13.6489C2.33212 12.3308 3.36861 11.2716 4.59356 10.4714C5.86562 9.62405 7.20836 9.01209 8.62176 8.6355C10.0823 8.21183 11.4486 8 12.7206 8C15.1234 8 17.2906 8.54135 19.2223 9.62405C21.1539 10.7067 22.4967 12.0013 23.2505 13.5076L23.8158 8.84733H32.5083V21.5573H23.3212C23.3212 20.8041 23.1091 20.1215 22.6851 19.5095C22.2611 18.8505 21.6957 18.2856 20.989 17.8149C20.3295 17.2971 19.5756 16.8969 18.7276 16.6145C17.8796 16.3321 17.008 16.1908 16.1128 16.1908C15.359 16.1908 14.6994 16.4027 14.134 16.8263C13.6158 17.2029 13.3567 17.8384 13.3567 18.7328C13.3567 19.5331 13.8514 20.1686 14.8407 20.6393C15.8301 21.1101 17.0551 21.5808 18.5156 22.0515C20.0232 22.4752 21.6486 22.9695 23.3918 23.5343C25.135 24.0522 26.7369 24.7583 28.1974 25.6527C29.705 26.5471 30.9535 27.7004 31.9429 29.1126C32.9323 30.4777 33.427 32.243 33.427 34.4084C33.427 36.056 33.0501 37.5388 32.2963 38.8569C31.5896 40.1749 30.6237 41.3047 29.3988 42.2462C28.221 43.1406 26.8311 43.8232 25.2293 44.2939C23.6274 44.7646 21.9784 45 20.2823 45C17.7382 45 15.5003 44.4822 13.5687 43.4466C11.6841 42.4109 10.3178 41.2106 9.4698 39.8454L8.83377 44.1527H0Z" fill="#3A2F2A" fill-opacity="0.8"/>
<path d="M35.8872 36.8092C35.8872 35.9148 36.0521 34.9968 36.3819 34.0553C36.7588 33.0668 37.277 32.1959 37.9366 31.4427C38.5962 30.6425 39.4207 30.007 40.4101 29.5363C41.4466 29.0184 42.6009 28.7595 43.8729 28.7595C45.145 28.7595 46.2757 29.0184 47.2651 29.5363C48.3016 30.007 49.1732 30.6425 49.8799 31.4427C50.5866 32.1959 51.1048 33.0668 51.4346 34.0553C51.8115 34.9968 52 35.9148 52 36.8092C52 38.9275 51.3169 40.7398 49.9506 42.2462C48.5843 43.7055 46.5584 44.4351 43.8729 44.4351C42.6951 44.4351 41.6115 44.2233 40.6221 43.7996C39.6798 43.3289 38.8553 42.7405 38.1486 42.0343C37.4419 41.3282 36.8766 40.528 36.4526 39.6336C36.0757 38.6921 35.8872 37.7506 35.8872 36.8092Z" fill="#3A2F2A" fill-opacity="0.8"/>
</svg>
