<svg xmlns="http://www.w3.org/2000/svg" viewBox="0 0 444.52 444.52">
  <path d="M181.781 75.44H144.02c-8.81 0-15.96-7.14-15.96-15.96V11.44c-16.25 0-29.42 13.17-29.42 29.42v362.79c0 16.25 13.17 29.43 29.42 29.43h154.95v-21.71c-1.44-.61-2.86-1.28-4.24-2.02a51.681 51.681 0 0 1-27.4-45.67c0-19.15 10.5-36.66 27.4-45.68 1.38-.74 2.8-1.41 4.24-2.02V150.92c-1.44-.61-2.86-1.28-4.24-2.02a51.681 51.681 0 0 1-27.4-45.67c0-19.15 10.5-36.66 27.4-45.68 1.38-.74 2.8-1.42 4.24-2.03V11.44h-85.269v48.04c0 8.82-7.14 15.96-15.96 15.96z" fill="#df0052"/>
  <path d="M128.06 11.44h69.917v48.04c0 8.82-4.83 15.96-10.797 15.96h-48.323c-2.665 0-5.1-1.42-6.988-3.8-2.334-2.92-3.809-7.28-3.809-12.16zM128.06 306.94h69.917v78.13c0 8.82-4.83 15.96-10.797 15.96h-48.323c-1.482 0-2.889-.44-4.174-1.23-3.89-2.42-6.623-8.1-6.623-14.73zM128.06 291.94v-87h69.917v87zM138.857 99.44h48.323c.243 0 .487.01.724.04 5.628.55 10.073 7.47 10.073 15.92v74.54H128.06V115.4c0-8.81 4.837-15.96 10.797-15.96z" fill="#96e0de"/>
  <path d="M294.45 0h.01c6.32 0 11.44 5.12 11.44 11.44v40.11a51.3 51.3 0 0 0-2.78-.08c-6.93 0-13.79 1.4-20.11 4.05V11.44c0-6.32 5.12-11.44 11.44-11.44zM303.12 415.43c.93 0 1.87-.03 2.78-.08v17.73c0 6.32-5.12 11.44-11.44 11.44h-.01c-6.32 0-11.44-5.12-11.44-11.44v-21.71a51.94 51.94 0 0 0 20.11 4.06zM303.12 154.98c.93 0 1.87-.03 2.78-.08V312a51.3 51.3 0 0 0-2.78-.08c-6.93 0-13.79 1.4-20.11 4.06V150.92a51.94 51.94 0 0 0 20.11 4.06z" fill="#ccc"/>
  <path d="M285.58 103.22c0-9.67 7.87-17.53 17.54-17.53 9.67 0 17.54 7.86 17.54 17.53 0 9.68-7.87 17.54-17.54 17.54-9.67 0-17.54-7.86-17.54-17.54zM285.58 363.68c0-9.67 7.87-17.54 17.54-17.54 9.67 0 17.54 7.87 17.54 17.54 0 9.67-7.87 17.54-17.54 17.54-9.67 0-17.54-7.87-17.54-17.54z" fill="#e6e6e6"/>
  <path d="M303.12 60.47c.93 0 1.86.03 2.77.09 22.33 1.43 39.99 19.98 39.99 42.66 0 22.69-17.66 41.24-39.99 42.67-.91.06-1.84.09-2.77.09-7.27 0-14.12-1.81-20.11-5.02-13.47-7.19-22.64-21.39-22.64-37.74 0-16.44 9.28-30.71 22.88-37.86a42.548 42.548 0 0 1 19.87-4.89zm0 25.22c-9.67 0-17.54 7.86-17.54 17.53 0 9.68 7.87 17.54 17.54 17.54 9.67 0 17.54-7.86 17.54-17.54 0-9.67-7.87-17.53-17.54-17.53zM283.01 325.94c5.99-3.21 12.84-5.02 20.11-5.02.93 0 1.86.03 2.78.09 22.32 1.43 39.98 19.98 39.98 42.67 0 22.68-17.66 41.23-39.98 42.66-.92.06-1.85.09-2.78.09-7.27 0-14.12-1.82-20.11-5.02-13.47-7.19-22.64-21.39-22.64-37.73 0-16.35 9.17-30.55 22.64-37.74zm20.11 20.2c-9.67 0-17.54 7.87-17.54 17.54 0 9.67 7.87 17.54 17.54 17.54 9.67 0 17.54-7.87 17.54-17.54 0-9.67-7.87-17.54-17.54-17.54z" fill="#666"/>
  <path d="M264.914 11.443v1c0 10.493-8.507 19-19 19v-20z" fill="#f7cf52"/>
  <path fill="#76cdce" d="M197.977 291.94h-65.858l58.856-87h7.002zM197.503 306.94h.474v78.13c0 8.82-4.83 15.96-10.797 15.96h-48.323c-1.482 0-2.889-.44-4.174-1.23zM187.904 99.48c5.628.55 10.073 7.47 10.073 15.92v74.54H128.06v-2zM172.594 11.44h25.383v48.04c0 8.82-4.83 15.96-10.797 15.96h-48.323c-2.665 0-5.1-1.42-6.988-3.8z"/>
</svg>