<svg width="124" height="124" viewBox="0 0 124 124" fill="none" xmlns="http://www.w3.org/2000/svg">
<rect width="124" height="124" rx="48" fill="#F98E62"/>
<rect x="16.6769" y="44.1702" width="14" height="6" rx="3" transform="rotate(6 16.6769 44.1702)" fill="#EFD659"/>
<rect x="49.9941" y="21.5002" width="14" height="6" rx="3" transform="rotate(90 49.9941 21.5002)" fill="#EFD659"/>
<rect x="62.0001" y="28.5532" width="14" height="6" rx="3" transform="rotate(116 62.0001 28.5532)" fill="#EFD659"/>
<rect x="35.465" y="22.9933" width="14" height="6" rx="3" transform="rotate(64 35.465 22.9933)" fill="#EFD659"/>
<rect x="22.3493" y="31.0002" width="14" height="6" rx="3" transform="rotate(34 22.3493 31.0002)" fill="#EFD659"/>
<path d="M62.9419 77.5495C64.9559 88.9713 63.1417 98.8382 45.9075 101.877C28.6734 104.916 23.5939 96.2645 21.58 84.8427C19.566 73.4209 27.1925 62.5291 38.6143 60.5151C50.0361 58.5012 60.9279 66.1277 62.9419 77.5495Z" fill="#F7F4E5"/>
<path d="M21.58 84.8427C19.566 73.4209 27.1925 62.5291 38.6143 60.5151C50.0361 58.5012 60.9279 66.1277 62.9419 77.5495C63.059 78.2138 63.1632 78.8729 63.2522 79.5256L61.4932 80.8512L54.4271 72.4506L51.0957 76.592L46.375 72.855L42.2324 78.1548L37.5117 74.4178L33.3691 79.7177L28.6485 75.9806L26.2138 88.0873L21.9834 86.8934C21.8362 86.2214 21.7024 85.5372 21.58 84.8427Z" fill="#4C3B33"/>
<circle cx="23.7803" cy="91.5627" r="5" transform="rotate(-10 23.7803 91.5627)" fill="#F7F4E5"/>
<circle cx="64.1575" cy="84.4431" r="5" transform="rotate(-10 64.1575 84.4431)" fill="#F7F4E5"/>
<circle cx="35.7722" cy="86.148" r="2.75" transform="rotate(-10 35.7722 86.148)" fill="#4C3B33"/>
<circle cx="51.5291" cy="83.3697" r="2.75" transform="rotate(-10 51.5291 83.3697)" fill="#4C3B33"/>
<path d="M49.4138 90.0891C49.8741 92.6998 47.6464 94.4624 45.1844 94.8966C42.7223 95.3307 40.0261 94.4363 39.5657 91.8256" stroke="#4C3B33" stroke-width="2.5" stroke-linecap="round"/>
<path d="M99.9418 53.6689C97.9278 65.0907 92.8484 73.7421 75.6142 70.7033C58.3801 67.6645 56.5659 57.7975 58.5799 46.3757C60.5939 34.9539 71.4857 27.3274 82.9075 29.3414C94.3292 31.3553 101.956 42.2472 99.9418 53.6689Z" fill="#F7F4E5"/>
<path d="M111.994 53.0002C112.994 54.0003 111.494 62.5001 102.72 61.3066L98.6644 55.5143L99.9418 53.6689L84.994 29.8184C84.994 29.8184 85.8143 27.6555 86.994 27.0002C91.494 24.5002 93.6093 25.0521 96.994 27.0002C100.187 28.8379 101.271 31.3875 101.994 35.0002C102.494 37.5002 101.994 46.0002 101.994 48.0002C101.994 50.8163 103.395 51.9171 105.994 53.0002C107.796 53.7512 110.994 52.0002 111.994 53.0002Z" fill="#4C3B33"/>
<path d="M58.5799 46.3757C60.5939 34.9539 71.4857 27.3274 82.9075 29.3414C94.3292 31.3553 102.016 42.2538 100.002 53.6756L99.553 55.7286L94.994 56.3739L94.994 50.0002L87.494 47.5002C87.494 47.5002 87.494 41.0002 86.994 40.5002C86.494 40.0002 85.994 47.0002 85.994 47.0002L72.994 44.0002C72.994 44.0002 73.494 37.2502 72.994 37.0002C72.494 36.7502 70.994 43.5002 70.994 43.5002L61.994 43.5002L59.494 49.5002L58.3189 48.0002C58.3963 47.4626 58.4838 46.9209 58.5799 46.3757Z" fill="#4C3B33"/>
<circle cx="57.3214" cy="52.7202" r="5" transform="rotate(10 57.3214 52.7202)" fill="#F7F4E5"/>
<circle cx="97.7962" cy="60.4385" r="5" transform="rotate(10 97.7962 60.4385)" fill="#F7F4E5"/>
<circle cx="70.4822" cy="52.1859" r="2.75" transform="rotate(10 70.4822 52.1859)" fill="#4C3B33"/>
<circle cx="86.2391" cy="54.9643" r="2.75" transform="rotate(10 86.2391 54.9643)" fill="#4C3B33"/>
<path d="M81.9532 60.555C81.4928 63.1657 78.7966 64.0601 76.3345 63.626C73.8725 63.1919 71.6448 61.4292 72.1051 58.8185" stroke="#4C3B33" stroke-width="2.5" stroke-linecap="round"/>
</svg>
