<svg id="critterpedia-app" width="124" height="124" viewBox="0 0 124 124" fill="none" 
  xmlns="http://www.w3.org/2000/svg">
  <rect width="124" height="124" rx="48" fill="#F7CC64"/>
  <mask id="mask0" mask-type="alpha" maskUnits="userSpaceOnUse" x="0" y="0" width="124" height="124">
    <rect width="124" height="124" rx="48" fill="#F7CC64"/>
  </mask>
  <g mask="url(#mask0)">
    <circle id="critter-dot-dark-bg" cx="62" cy="62" r="71.1176" fill="#F8BB50"/>
    <circle id="critter-dot-light-bg" cx="62" cy="62" r="71.1176" fill="#F7CC64"/>
  </g>
  <g id="critter-butterfly">
    <g id="critter-butterfly-flutter">
      <path d="M32.1959 20.0227C31.6893 20.0845 31 20.5 30.5042 20.7429C29.0146 21.4727 28.5 17 29.9999 16.5255C31.4999 16.051 31.1014 16.1266 31.7117 16.0522C38.0163 15.2833 44.1568 23.1041 45.427 33.5204C45.6808 35.6013 45.721 37.6283 45.5725 39.5461L41.51 34.4766C41.4936 34.3199 41.4757 34.1625 41.4565 34.0046C40.8948 29.3985 39.2714 25.5588 37.3111 23.0621C35.2972 20.4971 33.4227 19.8731 32.1959 20.0227Z" fill="#4C3B33"/>
      <path d="M58.4628 20.0227C58.9694 20.0845 59.6587 20.5 60.1545 20.7429C61.6441 21.4727 62.1587 17 60.6587 16.5255C59.1588 16.051 59.5573 16.1266 58.947 16.0522C52.6424 15.2833 46.5019 23.1041 45.2316 33.5204C44.9779 35.6013 44.9377 37.6283 45.0861 39.5461L49.1487 34.4766C49.1651 34.3199 49.183 34.1625 49.2022 34.0046C49.7639 29.3985 51.3873 25.5588 53.3476 23.0621C55.3615 20.4971 57.236 19.8731 58.4628 20.0227Z" fill="#4C3B33"/>
      <path d="M47.5 53.5C47.5 57.366 42.1944 65 37.5 65C32.8056 65 29 61.866 29 58C29 54.134 32.8056 51 37.5 51C47.5 51 47.5 49.634 47.5 53.5Z" fill="#F7F4E5"/>
      <path d="M47 45.4851C47 52.9801 47 52.9801 29.0476 52.9801C22.9462 52.9801 18 46.2689 18 37.9901C18 29.7113 20.3986 22.5 26.5 22.5C32.6014 22.5 47 31.5 47 45.4851Z" fill="#F7F4E5"/>
      <path d="M26.5 22.5C20.3986 22.5 18 29.7113 18 37.9901C18 39.021 18.0767 40.0276 18.2228 41C18.2228 41 19.9916 33.8532 23 30.5C24.956 28.3199 26.3169 27.1746 29 26C30.6702 25.2688 33.5 24.7558 33.5 24.7558C30.8325 23.2865 28.3037 22.5 26.5 22.5Z" fill="#4C3B33"/>
      <circle cx="33.5" cy="46.5" r="2.5" fill="#4C3B33"/>
      <ellipse cx="30" cy="36.5" rx="3" ry="3.5" fill="#4C3B33"/>
      <path d="M44 53C44 56.866 49.3056 64.5 54 64.5C58.6944 64.5 62.5 61.366 62.5 57.5C62.5 53.634 58.6944 50.5 54 50.5C44 50.5 44 49.134 44 53Z" fill="#F7F4E5"/>
      <path d="M44.5 44.9851C44.5 52.4801 44.5 52.4801 62.4524 52.4801C68.5538 52.4801 73.5 45.7689 73.5 37.4901C73.5 29.2113 71.1014 22 65 22C58.8986 22 44.5 31 44.5 44.9851Z" fill="#F7F4E5"/>
      <path d="M65 22C71.1014 22 73.5 29.2113 73.5 37.4901C73.5 38.521 73.4233 39.5276 73.2772 40.5C73.2772 40.5 71.5084 33.3532 68.5 30C66.544 27.8199 65.1831 26.6746 62.5 25.5C60.8298 24.7688 58 24.2558 58 24.2558C60.6675 22.7865 63.1963 22 65 22Z" fill="#4C3B33"/>
      <circle r="2.5" transform="matrix(-1 0 0 1 58 46)" fill="#4C3B33"/>
      <ellipse rx="3" ry="3.5" transform="matrix(-1 0 0 1 61.5 36)" fill="#4C3B33"/>
      <ellipse cx="45.5" cy="39" rx="1.5" ry="1" fill="#F7F4E5"/>
    </g>
  </g>
  <g id="critter-fish">
    <ellipse cx="73" cy="94.5" rx="16" ry="8.5" fill="#45ACBB"/>
    <ellipse cx="74" cy="69.5" rx="16" ry="8.5" fill="#45ACBB"/>
    <path d="M88 76.9999V87.9999C88 87.9999 89.866 87.5773 90.5 87.9999C90.5 87.9999 98.5 96.4999 104 94.9999C107 93.9999 107 91.9999 107 91.9999C107 91.9999 107.121 90.7715 107 89.9999C106.673 87.9134 105.056 87.0377 104.5 85C104.038 83.3046 104.092 82.7092 104.5 81C105.029 78.7852 106.692 78.2562 107 75.9999C107.106 75.226 107.147 74.767 107 73.9999C106.643 72.1337 106 71 104 71C95.8354 71 91.5 78 90.5 78C89.5 78 88 76.9999 88 76.9999Z" fill="#4C3B33"/>
    <path fill-rule="evenodd" clip-rule="evenodd" d="M62 102C77.464 102 90 93.2696 90 82.5C90 71.7304 77.464 63 62 63C46.536 63 34 71.7304 34 82.5C34 93.2696 46.536 102 62 102ZM46 83.9268C48.2091 83.9268 50 82.2233 50 80.1219C50 78.0205 48.2091 76.317 46 76.317C43.7909 76.317 42 78.0205 42 80.1219C42 82.2233 43.7909 83.9268 46 83.9268Z" fill="#4C3B33"/>
    <circle cx="60.2638" cy="88.4142" r="5.54077" transform="rotate(21.1125 60.2638 88.4142)" fill="#45ACBB"/>
    <path d="M51.4361 95.8946C57.1454 98.0991 63.412 95.6435 65.4327 90.41L55.095 86.4184L51.4361 95.8946Z" fill="#45ACBB"/>
  </g>
</svg>
