<svg width="124" height="124" viewBox="0 0 124 124" fill="none" xmlns="http://www.w3.org/2000/svg">
<rect width="124" height="124" rx="48" fill="#F9A7B3"/>
<path d="M43 35.5C33.5 35 34.5 27 33 25.9999C31.5 24.9998 12 35.5 12 37.5C12 39.5 20 51 22 51C24 50.9999 25.5 49 27 49C28.5 49 23 65.0001 24.5 68.5C26 72 60.5 73.4999 61.5 70C62.5 66.5001 60.5 49.9999 61 49C61.5 48 65 52.9999 66.5 53C68 53 77 38.5 75 36.5C73 34.4999 58 25.4999 57 27.5C56 29.5 52.5 36 43 35.5Z" fill="#F5F1E8"/>
<circle cx="44" cy="43" r="3" fill="#4C3B33"/>
<circle cx="44" cy="52" r="3" fill="#4C3B33"/>
<path d="M86.6791 34.221C89.0222 31.8779 92.8212 31.8779 95.1643 34.221L110.361 49.4177C112.704 51.7609 112.704 55.5599 110.361 57.903L79.1477 89.1164L55.4657 65.4344L86.6791 34.221Z" fill="#4C3B33"/>
<path d="M51.9712 97.7212C48.9322 98.6375 46.0999 95.785 47.0097 92.7245L54.6783 66.9267C55.5435 64.0159 59.1817 63.091 61.3151 65.2395L79.2625 83.3143C81.3958 85.4628 80.4774 89.1268 77.5872 89.9982L51.9712 97.7212Z" fill="#4C3B33"/>
<path d="M49.7836 83.3875L61.2449 94.9248L79.4569 89.434L55.1991 65.1695L49.7836 83.3875Z" fill="#FECE4E"/>
</svg>
