<svg width="124" height="124" viewBox="0 0 124 124" fill="none" xmlns="http://www.w3.org/2000/svg">
<rect width="124" height="124" rx="48" fill="#E49366"/>
<path d="M82.1947 73.5969L90.6752 78.8961L77.9571 99.2492C77.3718 100.186 76.1379 100.471 75.2012 99.8855L70.1129 96.706C69.1762 96.1206 68.8913 94.8867 69.4766 93.95L82.1947 73.5969Z" fill="#FDD22D"/>
<rect x="20" y="22" width="57" height="74" rx="8" fill="#F7F4E5"/>
<rect x="26" y="28" width="45" height="62" fill="#E98766"/>
<path d="M61 69C59.8634 72.5045 58 75.3451 56 77C54 78.6549 52.2361 79.382 50 80.5C49 81 49 82 48 82C47 82 47 81 46 80.5C43.7639 79.382 42 78.5 40 77C38 75.5 35.9191 72.3699 35 69C33.767 64.4788 34 61 35 57C36 54 44 52.5 48 52.5C52 52.5 59 54 61 57C62 61 62.4457 64.5423 61 69Z" fill="#4C3B33"/>
<rect x="45" y="35" width="3" height="4" rx="1" fill="#FDD22D"/>
<path d="M64 47.5C64 47.5 64.5017 51.4005 63 53C60.1834 56.0001 57 51 48 51C39 51 35.8166 56.0001 33 53C31.4983 51.4005 32 47.5 32 47.5C32 41.701 39.1634 38 48 38C56.8365 38 64 41.701 64 47.5Z" fill="#FDD22D"/>
<path d="M55 69.5C55 70.3284 55.6716 71 56.5 71C57.3284 71 58 70.3284 58 69.5C58 68.6716 57.3284 68 56.5 68C55.6716 68 55 68.6716 55 69.5Z" fill="#E98766"/>
<path d="M56.076 60.0782C56.7009 61.4046 56.8392 62.9383 56.5129 64.3618L57.0407 65.0534L59.4056 65.2237C59.9288 62.9919 59.7239 60.5834 58.7561 58.4957L56.076 60.0782Z" fill="#E98766"/>
<path d="M56.9648 60.913C57.7554 61.182 58.5985 60.6701 58.848 59.7696C59.0976 58.8692 58.6589 57.9211 57.8684 57.6522C57.0778 57.3832 56.2347 57.8951 55.9852 58.7956C55.7357 59.696 56.1743 60.644 56.9648 60.913Z" fill="#E98766"/>
<path d="M56.5626 65.6741C56.9193 66.5161 57.8151 66.8603 58.5634 66.4429C59.3118 66.0255 59.6293 65.0046 59.2726 64.1626C58.9159 63.3206 58.0201 62.9764 57.2718 63.3938C56.5234 63.8112 56.2059 64.8321 56.5626 65.6741Z" fill="#E98766"/>
<rect x="36" y="43" width="4" height="1.5" rx="0.75" fill="#E0A62B"/>
<rect x="41" y="41" width="3" height="1.5" rx="0.75" fill="#E0A62B"/>
<rect x="35" y="49" width="4" height="1.5" rx="0.75" fill="#E0A62B"/>
<rect x="40" y="47" width="8" height="1.5" rx="0.75" fill="#E0A62B"/>
<rect x="35" y="46" width="4" height="1.5" rx="0.75" fill="#E0A62B"/>
<rect x="41" y="44" width="5" height="1.5" rx="0.75" fill="#E0A62B"/>
<path d="M72.5163 68.3277C72.5163 68.3277 77.3182 68.1913 77.773 68.5112C78.2277 68.8311 79.0042 71.6031 80.4987 72.537C80.4987 72.537 90.4103 79.3201 92.3714 79.9558C94.3325 80.5916 99.2833 79.5583 100.427 80.2732C101.571 80.988 102.089 82.7574 102.648 84.2671C103.332 86.1149 104.138 88.4878 105.94 88.4346C108.343 88.3636 108.445 75.3434 105.727 71.7927C103.129 68.4009 88.7124 59.3922 88.7124 59.3922C87.284 58.4997 84.8415 58.8076 84.2447 58.4346C83.6479 58.0617 81.6948 53.639 81.6948 53.639C80.2492 50.9203 76.4026 50.7859 74.7708 53.3973L69.2638 62.2104C67.632 64.8217 69.439 68.2202 72.5163 68.3277Z" fill="#4C3B33"/>
</svg>
