<svg id="location" width="36" height="36" viewBox="0 0 36 36" fill="none" xmlns="http://www.w3.org/2000/svg">
<circle cx="18" cy="18" r="16" stroke="#DFDAC7" stroke-width="4"/>
<path d="M24.5 15C24.5 15.7451 24.1338 16.9431 23.3971 18.4818C22.6866 19.9658 21.7252 21.5794 20.7428 23.0886C19.7639 24.5926 18.7823 25.9654 18.0439 26.9638C18.0292 26.9838 18.0146 27.0036 18 27.0232C17.9855 27.0036 17.9708 26.9838 17.9561 26.9638C17.2177 25.9654 16.2361 24.5926 15.2572 23.0886C14.2748 21.5794 13.3134 19.9658 12.6029 18.4818C11.8662 16.9431 11.5 15.7451 11.5 15C11.5 11.4101 14.4101 8.5 18 8.5C21.5899 8.5 24.5 11.4101 24.5 15Z" fill="#DFDAC7" stroke="#DFDAC7" stroke-width="3"/>
<circle cx="18" cy="15" r="5.5" fill="#F7F4E5" stroke="#DFDAC7" stroke-width="5"/>
</svg>
