<svg id="nook-miles-app" width="124" height="124" viewBox="0 0 124 124" fill="none"
  xmlns="http://www.w3.org/2000/svg">
  <rect width="124" height="124" rx="48" fill="#889CEE"/>
  <g mask="url(#mask0)">
    <g id="nook-world">
      <path d="M107.117 108.143C117.826 133.555 106.057 162.901 80.8312 173.689C55.6053 184.477 26.4744 172.622 15.7656 147.21C5.05671 121.798 16.8251 92.4517 42.051 81.6638C67.277 70.8759 96.4079 82.7312 107.117 108.143Z" fill="#B7BDFF"/>
      <path d="M21.1759 98.2914C16.5532 104.785 13.5429 112.301 12.3973 120.208C11.8632 123.893 11.6476 127.356 11.932 131.043C12.2163 134.73 16.2102 129.266 16.383 128.436C17.2516 124.26 17.2379 113.645 21.2621 111.629C24.6954 110.895 23.6508 118.202 26.1977 119.393C28.2111 120.334 30.9685 117.275 32.0071 119.38C33.4403 122.285 30.871 123.526 34.4982 127.274C37.4435 129.087 40.6589 119.917 41.795 115.771C42.7502 112.285 43.7385 112.392 45.7277 110.593C48.0124 108.154 61.6081 100.478 59.7312 95.3128C58.9071 93.0448 58.6782 92.1046 56.7435 92.4484C49.6355 93.7114 43.3266 98.1677 42.5193 97.4005C38.9495 94.0082 42.1071 88.1568 37.4922 86.4756C36.2739 86.0317 30.431 88.4454 30.431 88.4454C26.9286 91.2789 23.812 94.5883 21.1759 98.2914Z" fill="#53C092"/>
      <path d="M98.6031 132.46C93.8169 131.999 95.7262 129.874 96.5074 128.326C97.5826 126.196 97.4084 125.462 99.2507 125.639C101.093 125.817 102.069 127.439 101.89 129.322C101.711 131.206 100.445 132.637 98.6031 132.46Z" fill="#53C092"/>
      <path d="M110.009 117.294C109.526 115.018 108.88 112.749 108.063 110.502C104.391 100.398 97.8224 92.2073 89.6487 86.535C85.6902 85.2098 81.9975 85.669 80.2505 88.0569C77.7332 91.4977 81.6759 100.204 87.2468 104.34C92.2975 108.09 98.3234 104.154 100.097 103.204C100.28 103.106 100.393 103.045 100.425 103.035C100.766 102.928 101.445 103.17 102.106 103.984C102.766 104.799 102.295 106.76 101.605 108.665C100.567 111.526 99.3612 114.851 102.557 117.224C105.113 119.122 107.422 120.836 109.894 117.458C109.934 117.404 109.972 117.349 110.009 117.294Z" fill="#53C092"/>
      <path d="M84.2697 114.781C83.2749 116.911 81.8294 119.462 79.5334 119.044C77.985 118.762 74.0197 115.71 72.6449 113.93C71.2702 112.15 71.2011 111.391 70.1658 110.178C69.1305 108.964 63.9374 106.852 68.1506 101.093C71.1633 96.975 74.5767 97.8848 79.6784 101.673C83.8504 104.77 85.9429 111.197 84.2697 114.781Z" fill="#53C092"/>
      <path d="M91.4309 129.915C89.5047 132.548 87.9887 133.029 85.5968 130.94C83.6854 128.778 85.1621 126.864 84.8486 124.48C84.6651 120.434 86.6683 119.023 90.0596 121.541C92.71 123.509 93.3571 127.282 91.4309 129.915Z" fill="#53C092"/>
      <path d="M92.4455 159.769C88.083 162.022 82.9468 164.673 86.3173 168.935C87.0016 169.398 87.8627 169.538 88.8519 169.391C99.6131 162.231 107.005 151.202 109.828 138.909C109.623 138.635 109.371 138.395 109.07 138.191C107.557 137.167 105.151 138.898 102.432 140.855C102.167 141.045 101.899 141.238 101.629 141.43C100.325 142.359 98.5744 142.272 96.7498 142.182C94.165 142.054 91.4316 141.918 89.6095 144.651C87.4336 147.916 90.2692 149.748 93.1586 151.615C94.868 152.72 96.5963 153.837 97.3168 155.269C98.1092 156.845 95.4624 158.212 92.4455 159.769Z" fill="#53C092"/>
      <path d="M50.1837 176.389C36.3097 173.117 24.071 163.891 17.2769 150.493C17.3116 150.427 17.3474 150.361 17.3841 150.296C18.1995 148.847 19.1153 146.256 20.1232 143.404C22.5526 136.531 25.5173 128.143 28.9009 130.582C33.5748 133.952 32.8762 138.732 32.3444 142.371C31.838 145.836 31.4829 148.266 36.0622 147.457C39.1288 146.915 41.5734 145.374 43.6302 144.077C46.7038 142.138 48.9113 140.746 51.034 144.054C52.3666 146.13 51.8211 147.876 51.2364 149.746C50.7511 151.299 50.2389 152.938 50.7513 154.925C51.222 156.749 52.7221 157.888 54.1325 158.958C55.853 160.264 57.4401 161.469 56.8626 163.693C56.4114 165.431 54.8511 165.9 53.2622 166.378C51.735 166.838 50.1814 167.305 49.5608 168.915C48.9732 170.438 49.3248 171.668 49.6996 172.978C49.9753 173.942 50.2635 174.95 50.1994 176.151C50.1951 176.231 50.1899 176.311 50.1837 176.389Z" fill="#53C092"/>
    </g>
  </g>
  <g id="nook-nook">
    <g id="nook-leg">
      <path id="nook-leg-right" d="M97.889 72.8735C98.7595 70.2528 97.3407 67.4227 94.7201 66.5523L72.8777 59.2969L69.0949 70.6851L89.9883 77.6252C93.1331 78.6698 96.5292 76.9673 97.5738 73.8225L97.889 72.8735Z" fill="#4C3B33"/>
      <path id="nook-leg-left" d="M32.746 72.8033C31.9685 70.1536 33.4863 67.3753 36.136 66.5979L58.2209 60.118L61.5993 71.6326L40.474 77.8309C37.2944 78.7639 33.9604 76.9425 33.0275 73.7628L32.746 72.8033Z" fill="#4C3B33"/>
    </g>
    <g id="nook-body">
      <path d="M78.3172 67C85.9223 67 94.8569 64.5145 100.145 59.4994C104.958 54.9343 107.211 48.7722 107.988 46.2028C108.173 45.589 107.707 45 107.066 45H48.3172C48.3172 57.1503 61.7487 67 78.3172 67Z" fill="#4C3B33"/>
      <path d="M33.7633 48.0803C33.5141 36.6427 42.4413 27.0981 53.8699 26.5829L79.9832 25.4059C90.6275 24.9261 99.6493 33.1576 100.145 43.8012C100.796 57.8011 90.1315 69.7513 76.1479 70.6905L59.6858 71.7962C45.8648 72.7244 34.0651 61.9291 33.7633 48.0803Z" fill="#4C3B33"/>
      <path d="M75.3172 24C75.3172 21.2386 77.5558 19 80.3172 19H81.3172C84.0787 19 86.3172 21.2386 86.3172 24V27H75.3172V24Z" fill="#4C3B33"/>
      <path d="M100.173 45.0867C100.174 44.6603 100.165 44.2317 100.145 43.8011C100.032 41.3853 99.4805 39.0937 98.5702 37C98.5702 37 92.2754 35.4038 88.8172 37C87.5388 37.5901 86.7064 38.0004 85.6571 38.9393C84.2019 40.2413 83.4905 41.1672 82.8172 43C82.0093 45.1995 81.9945 46.8061 82.8172 49C83.7868 51.5856 85.1975 53.1268 87.8172 54C89.6696 54.6175 90.967 54.6242 92.8172 54C94.6804 53.3715 95.5721 52.3543 96.9101 50.9134C98.7119 48.9731 100.173 45.0867 100.173 45.0867Z" fill="#EFD659"/>
      <circle cx="92.6864" cy="45.3553" r="2.5" fill="#4C3B33"/>
      <g id="nook-body-tail">
        <path d="M34.3172 52.4999V47.4999C34.3172 47.4999 29.8172 44.5 29.3173 41.4999V31.9998C29.3173 31.9998 29.3173 25.9998 22.3173 25.9999C15.3172 26 13.5593 34 15.3173 40.4999C17.0752 46.9998 21.8983 49.7267 22.3173 49.9999C26.327 52.6146 34.3172 52.4999 34.3172 52.4999Z" fill="#4C3B33"/>
        <path d="M29.3173 32C29.3173 32 29.3173 25.9999 22.3173 26C16.2182 26.0001 14.0987 32.0734 14.8169 37.936C14.8169 37.936 16.2293 36.721 17.8619 36.7301C19.4944 36.7392 20.8333 39.9287 23.3798 40.5C24.8877 40.8383 25.9318 41.1431 27.3371 40.5C28.2615 40.077 29.3173 38.8104 29.3173 38.8104V32Z" fill="#EFD659"/>
      </g>
    </g>
  </g>
</svg>
