<svg width="124" height="124" viewBox="0 0 124 124" fill="none" xmlns="http://www.w3.org/2000/svg">
<rect width="124" height="124" rx="48" fill="#89C68A"/>
<path d="M33 33C33 28.5817 36.5817 25 41 25H77C84.732 25 91 31.268 91 39V91C91 98.732 84.732 105 77 105H37C34.7909 105 33 103.209 33 101V33Z" fill="#F7F4E5"/>
<path d="M33 27C33 22.5817 36.5817 19 41 19H75C82.732 19 89 25.268 89 33V85C89 92.732 82.732 99 75 99H33V27Z" fill="#4C3B33"/>
<rect x="48" y="71" width="26" height="7" rx="3.5" fill="#5C9E5A"/>
<rect x="43" y="81" width="36" height="7" rx="3.5" fill="#5C9E5A"/>
<circle cx="61" cy="47" r="20" fill="#5C9E5A"/>
<circle cx="61" cy="47" r="15" fill="#F7F4E5"/>
<mask id="mask0" mask-type="alpha" maskUnits="userSpaceOnUse" x="46" y="32" width="30" height="30">
<circle cx="61" cy="47" r="15" fill="#F7F4E5"/>
</mask>
<g mask="url(#mask0)">
<path d="M59.268 53C60.0378 51.6667 61.9623 51.6667 62.7321 53L67.0622 60.5C67.832 61.8333 66.8697 63.5 65.3301 63.5H56.6699C55.1303 63.5 54.168 61.8333 54.9378 60.5L59.268 53Z" fill="#F7CC64"/>
<circle cx="61" cy="46" r="10" fill="#F7CC64"/>
<path d="M61 56C66.8002 56 71.347 52.4488 72.6335 48.3391C73.0042 47.1547 71.8839 46.1932 70.6607 46.4036C67.2628 46.9878 61.3283 48 61 48C60.6717 48 54.7372 46.9878 51.3393 46.4036C50.1161 46.1932 48.9958 47.1547 49.3665 48.3391C50.653 52.4488 55.1998 56 61 56Z" fill="#F7CC64"/>
<circle cx="57.25" cy="47.25" r="1.25" fill="#4C3B33"/>
<circle cx="64.75" cy="47.25" r="1.25" fill="#4C3B33"/>
<path d="M64 50C64 51.6569 62.5 52.5 61 52.5C59.5 52.5 58 51.6569 58 50" stroke="#4C3B33" stroke-width="1.5"/>
<path d="M54 44L57 41L59 44L62 41L64 44L67 41" stroke="#4C3B33" stroke-width="1.5"/>
</g>
</svg>
