<svg id="wifi" width="79" height="27" viewBox="0 0 79 27" fill="none" xmlns="http://www.w3.org/2000/svg">
<path d="M29 27C29 24.2386 26.7614 22 24 22C21.2386 22 19 24.2386 19 27" stroke="#DFDAC7" stroke-width="4"/>
<path d="M45 27C45 24.2386 42.7614 22 40 22C37.2386 22 35 24.2386 35 27" stroke="#DFDAC7" stroke-width="4"/>
<path d="M29 17C29 14.2386 26.7614 12 24 12C21.2386 12 19 14.2386 19 17" stroke="#DFDAC7" stroke-width="4"/>
<path d="M45 17C45 14.2386 42.7614 12 40 12C37.2386 12 35 14.2386 35 17" stroke="#DFDAC7" stroke-width="4"/>
<path d="M45 7C45 4.23858 42.7614 2 40 2C37.2386 2 35 4.23858 35 7" stroke="#DFDAC7" stroke-width="4"/>
<path d="M12 27C12 24.2386 9.76142 22 7 22C4.23858 22 2 24.2386 2 27" stroke="#DFDAC7" stroke-width="4"/>
<path d="M77 17C77 22.5228 72.0751 27 66 27C61.4893 27 51 23.5 51 16.5C51 15 55 17 55 16.5C55 10.9772 59.9249 7 66 7C72.0751 7 77 11.4772 77 17Z" fill="#DFDAC7"/>
<path d="M63 7C63 9.20914 61.2091 11 59 11C56.7909 11 55 9.20914 55 7C55 4.79086 56.7909 3 59 3C61.2091 3 63 4.79086 63 7Z" fill="#DFDAC7"/>
<path d="M79 8C79 10.2091 77.2091 12 75 12C72.7909 12 71 10.2091 71 8C71 5.79086 72.7909 4 75 4C77.2091 4 79 5.79086 79 8Z" fill="#DFDAC7"/>
</svg>
